<mxfile host="65bd71144e">
    <diagram id="v7t5vsZsvGCPtjg6ivVR" name="ページ1">
        <mxGraphModel dx="1970" dy="1453" grid="1" gridSize="10" guides="1" tooltips="1" connect="1" arrows="1" fold="1" page="1" pageScale="1" pageWidth="827" pageHeight="1169" math="0" shadow="0">
            <root>
                <mxCell id="0"/>
                <mxCell id="1" parent="0"/>
                <mxCell id="4" value="" style="shape=image;verticalLabelPosition=bottom;labelBackgroundColor=default;verticalAlign=top;aspect=fixed;imageAspect=0;image=data:image/png,iVBORw0KGgoAAAANSUhEUgAABAkAAAJ0CAYAAABwa3qkAAAAAXNSR0IArs4c6QAAAARnQU1BAACxjwv8YQUAAAAJcEhZcwAAFxEAABcRAcom8z8AAJ3qSURBVHhe7b17sGRVnec7N27ciImJ6Lgzf9wb3mvEtPdqzBgd44zTM409t29fnLYAn0Bro1Rpg1qloi2D0g3io5UWFWxQELVpUETeIiDyEIo3KMVLAQGx0OL9LOT9poDufeuXZ63Dtza/vXNlntxr7Z3n84n4RJ3cr8yz8uSq3/eXO3f+C+g3f/TWt77ij7bbfretttth/6223f7ikdvt8OwbttuhQkRERERERIzGzPiG7bY/eKttd/jEf9v27a8N0RKGzNZbb/0vrTGw+Ym9znviEREREREREVPcarsd1tubzvYGdIicMCRGzYFtd7jfe3IRERERERERp3P7Rzf/u+9/2nqHfx3iJ/SZzU/Wq5rOHNj7775SHf2DU6prrr9x5EOPPFIBAAAAAAAARJ548qnFzHjij86oPrf/QdWKd616Wb60N6W3evM7/jhEUegjm5+oN4auzuITZ0+mPbH2RAMAAAAAAABMw1nnXVjtuMuHtmgU2HXu7Cz2EEmhT2x+gt6oT5b5nWNPpDkAAAAAAAAAM8PehK6fWWAXNwzRFPrA5ifFPmKweAaBPWF2aggAAAAAAADArLnjrrurd6/5q5eaBAvfnPfGEFGhJPYNBnoNAmsQ3LfxgfDUAQAAAAAAAMweO2tdGwV2jQK++aAH2Gkdi0/KZjmDAAAAAAAAAHJgb1Bv8dGDbXc4LERVKMHoLAL5mkP75gIAAAAAAACAXFyy7sqXmgSb/aNtdnh9iKyQmzdsu/0+8Yl4687vrzZt2hSeJgAAAAAAAIA8/OXHPiGNgu1PC5EVcrPVdjusj0+EXWESAAAAAAAAIDe/ueW2xSaBXcTQznoPsRVysXnwXxWfhD99x06cRQAAAAAAAADFWL3H3ouNgjdss/3OIbpCLvSjBp/b/6DwtAAAAAAAAADk5zvHnrjYJNhq2+2PCtEVcmGDHp+AU886JzwtAAAAAAAAAPnRjxzY1/SH6Aq52Grb7S+OTwBfewgAAAAAAAAleeLJp15qEmy7w/0hukIuttp2+9vjE3DHXXeHpwUAAAAAAACgDHa9vJhTQ3SFXNgVI+PgW8cGAAAAAAAAoCQ0CQoSB94EAAAAAAAAKI3m1BBdIRc6+AAAAAAAAACl0ZwaoivkQgcfAAAAAAAAoDSaU0N0hVzo4AMAAAAAAACURnNqiK6QCx18AAAAAAAAgNJoTg3RFXKhgw8AAAAAAABQGs2pIbpCLnTwAQAAAAAAAEqjOTVEV8iFDj4AAAAAAABAaTSnhugKudDBBwAAAAAAACiN5tQQXSEXOvgAALA0fn7d9dX/+My+1ZpPfGrkF/7+4OrZZ58LawEAAAAgBc2pIbpCLnTw+8ILL75YnXrmOdX+h3x75CXrrhgt+8bh3xvd/vtv/WN16+13hq1fwra56977Rt57/8awdGlcd+NNo0J/t7/5zOhxAHjY3961N/yqWnf1LwiEyxibL2wu/ZO3vas649wLqoO+fcTo9i5/9Un+LgAAAAAmQHNqiK6QCx38vmCB668//6XRY7Ji+1c3/6Z6btOmavv3rR4t23r7d1ePPPpY2Polzlh7/uLvste+XwlLp0cfR3wsZ59/UVg7TCzEThNkYwPmp1dcNWrWxMaJPTfj0OaN3XdsANkxdGz1WNbk0XdjU+7HsP1ic6nJ1GNNgt3vinetavw7ic2mcaaOKfSTQw4/cvQ3cMQxJ4xu6xxy7sU/HS3rCxt/97vR63FWDdW+8eBDD4/mHJozAAAAwyTmBDNEV8iFDn5f6EuTQI9napFvBbaF2CGdYRDf5TRXfeR/LIbRWEzHd8JjiLffb9e/2nOLMajbNM4xLE2iHktDd9Pz7aG/Y5P2PNrfkzYhxjnulPH634qNr/5djGsSxP3qzRIYDl5DoIsmgTWgYsPLzqpKfW3Uqb9GY2NjHtD/L+qvRQAAABgGWqeE6Aq50MEvST206eN69+qPvSys2rK47XGnnDY6xiybBBpS68fTwj9qhaj3EYi+4D1m87CjjnWXt2lB1sY9hhTv977i59csPj+qvtt+4U/XNb7TN22TwPaLAarJetMpxbbTxduOtd/XDk16JzMGtpQmgT2X8XPv+jdq2hgfefxJrX+L3uNtC7D1v52252Opj20cdvx4Vkrd2++6e/FMGdXOfrHn/eiTTglH6Y44B8W/l/h33Pa82u8UP0plfv2w77T+zWi4n/ZjDJM8p0PEa1LO07Uh7Pmzv237+wIAAJhX9P/xEF0hFzr4JZk0tKnxHbBZNQnqBXRTIW5BuB6EUkNhCez3+vb3jtni8Vo4iJ+bjo2Xz+1/0GJg+ehen13cdqnvhOq4jgsl0zYJJiGeQdGkPb/xd28LY/p3Z4/1uJN/tMXfRUqQS20S2BkJ9b+5Jpv+Fr3XWtsYpwbKWTw2Q5/7Wdv2bvm4sz1Srd+nPadtr5368zHuHf1ZNAnqY7zUpmrfsDO94rym2nMx9I+M6etxHn4fAACAJvT/8BBdIRc6+H2hXgTV3/ltCinTNgnq4bAe+q6/6dej5d47lfYuZT3Q9P2sAv39JnkHObVJkHLKf5PxuZ20STDNfY4LY3rMpjDWFPDqIczeWU9pgrU1CaYJz97roKkh1zQeKU2CWT02o+nxzUJ7Hptem0v5u61rTZA4n4yjRJNA5wBzqQ3AvmJntWij05x2zPqCd5aE/b0BAADMG/p/XYiukAsd/D4RPx9vxoIuvvNrgSQSL75l6jtHVgjG5dHf3npb2OslugwkfX6HJ45lG0tpEnjvsJo6PvqRkagFUHuerLjXJoEti6Gr/jdglGoStAW2GJwt+Nvfc9s1EOIxmpoE9eciVe94TX/zqfddbxLM8rEZdjw9/d4+olB/LZv69xDV8a8H4XHhsO3vNlW9v9RGZe4mwbjnc96w3zeeQdX0Nzck7P+8euPDnOZvAQAAoM/o/3MhukIudPBLY8WcBX2v+G5ykncvvaK9KeBYMRnvwy5OGAOLfQa/KajYmQax2LezCYZeeNfHZqnvNurxvGDS9Fx4egWxPhcpjiuoxzUJ6iFU/2aie/7tfqP7GkcMfk0hpv5OvW1nn7GvN0u0uRKt/923Nca837P+vNSfu1k+tllRbxrlCML1ce1rk6D+fOlZD9M46f2XIj7eLrDXiI5JqtOOnd1f/aNjJo0CAACYJ/T/uBBdIRc6+KWZJCRGmz4/b+9S2zK94GFT0T7L77e332FWx5olOrZ6AS89E6OufZRCx9QucuhtF9XTuO3+vIZPPJZZP5PAmjH7HfSN0c/ehSo12LQVw14xrqbS1iSoh1ALxno7/m6ppwFP2iRoC6D1beuPva1JYNabQfXX5bgmwVIe2yRYSNK/nfj35z03Od49njTsR3I3CXT/WdhVo2dS7O90n/0OGP095D6La9oxXerY1RuVJtcoAACAeUH/fwvRFXKhg18aDSMxiGjBb8WzblMv/rVgisWXFm/jCjI7dvz6v2m1d1CnDT1d4r3rbV8L5hWZ06rhpv48xWZODIjeMg2fGia9v4WmcFQPiJ7TXFuhLWjbuqeeevplf7sRK9pjmG0y3o+pzZP4WL1gb02baf7WxjUJ6o9fn0tv/Swf2yR4YVkvNmnmahAY9b+91L+znE2CepNmFvalSVAP6ku5Nkwcp4/v87dJ46sNq3Hq+M9i7OzvLh4ztTFlxPGyv6E+X0MHAACWL/H/SzNEV8iFDn5p+tAk0DA0jZMW7U3YNQO8d+uteJ0GO2PA+930TAxPLWj1Yxee+l3k3nOZusxYSpPAK8zVGN7s9Hfv94jaNQTa7s/2P/FHZ7T+HsZSGjEaNOshKGpNBfvc/pXXXJf0t1cPpRam6p9xbmr4mPXfz5jVY5sEvU97fk768Zlb3HfOBoGhz/Mk952rSeA9j/GirJ46nvb72Ovb227Wz+s02O/mfZuB2fZNGh71cZrVnB7x/p/KTb1ZNOvfEQAAYBbE/6fMEF0hFzr4pdHizIpS+x59LVTtNHk9Bb7rJkHquzJ6v7MqturvSkZT351sYpICtT4ek9x3/bmc9EwC/f29JsEsimsdi3F6z6t+haJdjyL+vvZ46xda9Ix/m20BTBl3BkDUgnnbGS3149jvdsvtd2wRGvS1Vf878JoEs3psk9DUmDDrc0PX1MdoknkgV5Og/vc+yf14z7lHU3Nz1jb9zrO4qF/972rWQX6SObgr6r9j6v91AAAAOdH/q0J0hVzo4JemXmiPsx4EvOJLi6FJQ/E8NgkMexfJLsA47hTT+nhM2yQw4yn08ba3bBZNAvvd9GwAz/g3o8+bPZb6dm1nEkzyt9oUsOLfZj2QW3Og6YyRphDkacf1Pp/sNQnsd6uHyLi8/rs2/T6zeGyTUA86UXt8uU+frr9eJwldOZoEk75zXH/OU++nad6apeMaQPbY62eVpM5d9ddA09/6UvD+n8pJ/TlKfW4BAAByo/9fhegKudDB7wP67qypnzG2zznrOlPxii+aBNNTH49pmwSx0E5dZujvH8dUlzU9lykhJf4e44p17zFE7HHXr1/hnSVhWkNm/W83LH6tXww49SaBHVOXtY23nbnQdHp13frfcVOTwDsbwB6DPkfmuOC0lMc2CfWwPO5d5q6oj8+4EFun6yZBvUGQ8vjqjyk1zKa8/pZq6vjGhuFxp5wWlrRTv56F2cV8W7JJMM3fAgAAQCni/1dmiK6QCx38PqJF57jiedZNgmlMKdpTaCq2uyham6iPxyT3rftaIWofHal/VKS+bFyTIKW4jsGgzVgUpxwvNqPsuG3o7xt/D9sv/i3ofcXfR/82rQGmt2187J32lL8la6z9+OxztzjzQa2H+qYmgVH/u7N9f7f5+Pp3MK5JoEz62FKp/23mDluKPrfTPJZJmgTT/N72HOjX5aW8jut/BznnnRJ4DYJJGlj2HNrfuF77pEkN6Tn/bu1Mn3oTcClNOgAAgK7R/7NCdIVc6OCXRkNSqhpwdP9Y/CylSWBBzSvy6k5yGu8kxICqzgIraO2Ceyef/pPGcJhqU8irj2WKeiwvVKeE+klY6vFuXP+bxQaHhfz4+9rvcdHPLl88tj3+xx5//GVBsOnv3fZfyunydn2B+mn/GvLamgRG/XHt+bf7bfFcThvsjXGPLZVJgnWXeE2VScemHjDb3vmu/95dhMz6a3cpz/cQqDd5zEn/nurPS6q5mgT1Mwhy3jcAAMC06P9bIbpCLnTwS2PvnNbf9dV3IO0q7PX18SJo9cJ22iaBfrd/6mmq9g5NPNXZruLed7Qojl8TNusmgYc+R+P28563caG+/vw1ad/SYPe91CaBFt76DQH2u33/xJMXjx3/FvX+bJu/3f9ri7ejdpz6uEwT2urPp4aecU0CL1Coev+zfmyp1I9R4p1uewz1cer6ccxi7MaR4z76QP1vdym/rx3r2ht+tfj/QJv6UZwcQd3Okqj/nc6ymQ0AANAV+n9XiK6QCx38PqIFa1vxpsFHP2c5SZOgDWtgxEJryEVzU0DUcR5XQGqIbAqFXtHsfdxA15vWsKg/xjjeKU0Cr+ivGx/zUpsE9b+5Xf9qz8XjawMgBkfb3q5LEK9RUH+s+ndbp/7u/rjHq7+bqX+zTX8DSn1/tf6cz/KxpaL3mdKYmDXe+OSYF/T3bvt7mZZpmj5DxAvONp5LvZhmCkudd1Kx5rV3bRAaBAAAMBT0/68QXSEXOvh9oP7d9W1nEuhXqWnI1cI2tUlghZu9yxyPacVifOf54/v87RbvDJv10BXDrxVgua+sPgn1cBMD7KybBPUgmqqNqz4WDULjiut6wNF3db3HvNRivakpoQ0DL8jZ33g9oESbxlPHJGpfCWpftajUP38e1bFIaRK0NVzqj3GWjy2F+v11GbTqNH2DQ44GQf0Mjy7CXn1+yPF75cQuquk9f/GMqhwsdd4ZR1NzwNzva4fO/G8GAACgK/T/sBBdIRc6+H2gXqS2GYvkeqDRwiulSeDtr1+hFfdreveyftGrXO9ITUpbyJh1k8DGdJozCSxYNj2XJZoEGqi951X/Jjx1LNuKd9Ub/7bQPs76c5TSJDDqfy/R+vFm+djGUX/sk+4/LfbceRdfzPVa98Z40ubKOOrNl3HzwJCwxpzXHDBzB+dZNwniXGtnKXmvV7Ov/ycBAAC0of+XhegKudDB7wNW8OiF+jSA178C0UKMocWtFUP6zm1Kk8Db3yvkLKDYGQx2uni9qPQCVd/ehasHWg0Zs24SeGjQsf2sIWCNgeNO/tHihdviO/DmpM9lPUjNoklQf17rwcxu20UgreGhv5t9I0D8O7XHZV+XqMex303PNjjy+JPGBnfvbyzF+mNObRIYXhPEe85n9djasKCuj3vS/SfFznyoP29qrnef63/X5qwDfP35q7/2hog1BtqacjnPHlCW0iSw14D9HxTPctPfx9OeRz3jDgAAYEjo/2khukIudPD7iIZXO4U5hsr4kYN6uKoXXZMGy1h8pxZy8fhWcFpYrIcYe5eqD4x7l7CrJoGFZHuXy84iaHuny7PtufQaMF00CbwGkofet20XC3ltekTj+MbfJx63HtS8EGPbNL0jWteO6717OEmToL6t2fScz+KxNeF9RKPtdbkU7Hdu+z0mfexLwUJh/bGMe81NSv3vzhzyxwz0de1pr6v6R2GWitdMS3HSv2Hv9ehpv+Ml665onccBAAD6jv7fFqIr5EIHvyT2dXIWrPY76BuL75JMEijNGLaUcU2CekEZg6UubwpR9Xc2rbCeJIDlwiss6+/A1psIqS7lXWV7ju2sjHMvuvRlQag+bt5Y16k3CezvIf4taVj3mgTmu1d/bHH7qK73fld7t9kaIPZ3O+53tsej35hRbxIY9bGz+/Te7bTQbGdf1O/TjmXf3tAWECb9G63/bYwLqUt5bHXsOfWuY9B18837G47BKwf2e3tnMejfyizwfs++NDanpSlIW5O5qzMHcjUJ6nOcafOWva6sYW7frlP6/xsAAIBZof/fhegKudDBL8m4YGnFsYU2ayTYqd31z66bFnytiNpnvwNG29bfxfWCpQYQLdjGvRtVV4v3eEqo97GEEtTfjfQK01k2CbywrkWsPdcRr+i1MOaF+GhTUPLuN4Z9r0kw7m+urv79eI9b/dz+By2GYQstdhZFDJj2fFhjIQaZ+u+jz9eQ39GdFfW/zVxjEhuXJ5/+k6yvY/vb8kKnd2bJUpjHBkEk/s3Yaz1XYycVndcmbRIY9rvZnNblR20AAAD6QPz/0gzRFXKhg1+S+O6PBSYL17ERoIGyjha58fTfpvDW9m6phTL7GIOurwfrNu0x971gi+PSFLA1iI17Z1nHveldZXs32T5+kRKums7a8BoX9vj13Xil/tzrc9L0mG2fcd9v3vTunD5ua4JYmGz7e43Uf6+m5wRewl7fFtiXyzjZ32VsYNrfR1efK7d5zj63b6FzXhoEfcee23i9ki6eUwAAgHlB6+UQXSEXOvjzghZhZkpwg4XrB5QYL3u+YhhfKnb6f/w9usZrLqVg+9mZBRZ6zVyfbwcAAAAAGAqaU0N0hVzo4AMAAAAAAACURnNqiK6QCx18AAAAAAAAgNJoTg3RFXKhgw8AAAAAAABQGs2pIbpCLnTwAQAAAAAAAEqjOTVEV8iFDj4AAAAAAABAaTSnhugKudDBBwAAAAAAACiN5tQQXSEXOvgAAAAAAAAApdGcGqIr5EIHHwAAAAAAAKA0mlNDdIVc6OADAAAAAAAAlEZzaoiukAsdfAAAAAAAAIDSaE4N0RVyoYMPAAAAAAAAUBrNqSG6Qi508AEAAAAAAABKozk1RFfIhQ4+AAAAAAAAQGk0p4boCrnQwQcAAAAAAAAojebUEF0hFzr4AAAAAAAAAKXRnBqiK+RCBx8AAAAAAACgNJpTQ3SFXOjgAwAAAAAAAJRGc2qIrpALHXwAAAAAAACA0mhODdEVcqGDDwAAAAAAAFAazakhukIudPABAAAAAAAASqM5NURXyIUOPgAAAAAAAEBpNKeG6Aq50MEHAAAAAAAAKI3m1BBdIRc6+AAAAAAAAACl0ZwaoivkQgcfAAAAAAAAoDSaU0N0hVzo4AMAAAAAAACURnNqiK6QCx18AAAAAAAAgNJoTg3RFXKhgw9L4/Hn/rm64t4Xq0Ou3lS9/6xnq/905FPV//UPTyIi9tLXHv5ktfL0Z6q/v3JTde5tL1S/e/qfw2wGUJ6bH/5Ndfz6E6tDrjm0+vTPPlf95TkfqN5+2o6IiL30nWe8ezRXfenK/Udz16V3/yzMZjAtmlNDdIVc6ODD9Fxy5wvVVt+nKYCIw9Uamyevfz7MagBlOPu2tdVuF3zcLcIREYekNTdP/s2p1VPPPxVmOJgEzakhukIudPBhcuzsgb0ues4tuBERh6idCcVZBZAbK6K/cPkX3UIbEXHIWuPzgacfCLMdpKI5NURXyIUOPkxOvUHwuu8+VX1q87IjrttUXXTHC9XdT/wTImIv/fn9L1Qn3PR89cXLnqv+29FPbzGXvfPUZ8IsB9A91iConz3w52fsVO1/1d9XP7j55OrSe35W/fJ311cbNxfZiIh99DePbBjNVWfc8pPqG9d+s3rv2btuMae956z3bv6/954w60EKmlNDdIVc6ODDZNhHDLSo3vnHz1TXP/DiywpxRMS+e+uj/1T97U+3bHra9VUAcmAfMdBi+tu/PLy67fHb3UIcEXEI3v3EvaMmpzU8X5rb/jHMepCC5tQQXSEXOviQjn3MQK9B8LFzn31Z0Y2IODT3v/ylRoFd2PCmB/8pzHoA3fHXl35qsYg+6ldHuwU3IuIQPef2cxfnN7tGAaSjOTVEV8iFDj6kY1cCj4X0fznqqWr9Q5xBgIjz4Tt/9NJHDzibAHIQC2jTTtn1Cm1ExKGqcxykozk1RFfIhQ4+pLPfZZsWi2g7RdcrtBERh6hdpyDObx8559kw6wF0hxbQXoGNiDhkdY6DdDSnhugKudDBh3Tsu8VjEW0FtVdoIyIOUbugYZzf7GNVAF2jBbRXYCMiDlmd4yAdzakhukIudPAhHfusbiyiraD2Cm1ExKEa5zcToGu0gPYKbETEIatzHKSjOTVEV8iFDj6kowW0V2AjIg5ZneMAukYLaK/ARkQcsjrHQTqaU0N0hVzo4EM6WkB7BTYi4pDVOQ6ga7SA9gpsRMQhq3McpKM5NURXyIUOPqSjBbRXYCMiDlmd4wC6Rgtor8BGRByyOsdBOppTQ3SFXOjgQzpaQHsFNiLikNU5DqBrtID2CmxExCGrcxykozk1RFfIhQ4+pKMFtFdgIyIOWZ3jALpGC2ivwEZEHLI6x0E6mlNDdIVc6OBDOlpAewU2IuKQ1TkOoGu0gPYKbETEIatzHKSjOTVEV8iFDj6kowW0V2AjIg5ZneMAukYLaK/ARkQcsjrHQTqaU0N0hVzo4EM6WkB7BTYi4pDVOQ6ga7SA9gpsRMQhq3McpKM5NURXyIUOPqSjBbRXYCMiDlmd4wC6Rgtor8BGRByyOsdBOppTQ3SFXOjgQzpaQHsFNiLikNU5DqBrtID2CmxExCGrcxykozk1RFfIhQ4+pKMFtFdgIyIOWZ3jALpGC2ivwEZEHLI6x0E6mlNDdIVc6OBDOlpAewU2IuKQ1TkOoGu0gPYKbETEIatzHKSjOTVEV8iFDj6kowW0V2AjIg5ZneMAukYLaK/ARkQcsjrHQTqaU0N0hVzo4EM6WkB7BTYilvX2R1+orrzlcXcdjlfnOICu0QLaK7BxMq+/+4Zq3YYr3HU4f97zxL3VtXf+0l2H/VDnOEhHc2qIrpALHXxIRwtor8BGxHJag2D7z1xQ/Zu3HVt968wN7jbYrs5xAF2jBbRXYGO6dz56d7X9fn9e/f4HXlMdfclx7jYlPfu6c6o7HrnTXYeTaw2CnQ983+j5/u5FR7nbYHl1joN0NKeG6Aq50MGHdLSA9gpsxEk8ed291QcPXFd9+OArquvvftrdBhe00G9j9YVjbqh+++Cml60//Oxbq4t/9XB1y0PPV3+25znV72139GhZfTtsV+c4gK7RAtorsHG8dvbAX+y/c/V3J31p9PMf7vGG6pW7vKpXjQJrYMTH9dHDdne3wZe00L/7EZ+oDvjR37uNFXtu7YyR2Bjq2/ONL6lzHKSjOTVEV8iFDj6kowW0V2DjsM19mvohP/7NKMzu8LkL3fV9NvdYffybV4/G6lPfvfZl66645bHqle88cXQGwU+ufWCxURBv17fHZnWOA+gaLaC9AhvHq40BC5fx9qvXvLY3Hz045/pzR4/P3vW+4FcXudv02dyn9O999KdH42WNn/q6a+68rnrtR163OJZ6BskQx3be1TkO0tGcGqIr5EIHH9LRAtorsJeTdmr3bgdfWf1/u589lW/Y7czqDz90+th30O1+Trvyvur4S++eytQwa4HdQuUXj7/RXd+FQ20SlBirtiaB6TUKvnbqze622KzOcQBdowW0V2BjmvpOvb2j3LdrE8TQ+96v7eKu77OHn/+dUQA/8PSvu+u7sK1JYHqNgm+v/Ud3WyyrznGQjubUEF0hFzr4kI4W0F6BvZyMn/+24LYUm0Jf1MLev1t1irtviimnnJ9+1X2jgBn32fWAy9xT2mftrJsE8XjT2uexGtckMGOjwBpQOR7TPKpzHEDXaAHtFdiYrgXH//jxP8waZlOMgdZC7zv2e+foNHpP+8jEn395p+TrFlh4t2NOa8rp+XYGRHzspn1UIsd1FcY1Ccw4rn/22e241kOP1TkO0tGcGqIr5EIHH9LRAtorsJeb077Df+DJ6xeD5rhgqk2C//iB09yzEupaSIwhNvVz6Sf+9O4twm+OoDnEJoFZYqxSmgTm2l/+bnRtAm8djlfnOICu0QLaK7Cx2RgS+/5Z9Bh4U00NvTmaBOaPfv7jLRoFOUJ5SpPAvPjXl/BtFj1X5zhIR3NqiK6QCx18SEcLaK/AxjTt3ejUYBqbBJN8vlwbC6nB17z6ticWL3pnpnwcYinOuklgZ3dc9ttHXWPI/uvDr3HXm94xm8w9VqlNAlyaOscBdI0W0F6BvVy1BoC9s9501Xq9DsGsPotux/zMcZ+v1m+82V1/4303ucvbjNciMD/4zQ+5ZxBEYxDfep83NT4G1a7uf/Xtv3CNIftvT9jXXW96x2zSxiZeIHCSxzitqU0C7L86x0E6mlNDdIVc6OBDOlpAewU2phmbBCnBP2eTwNSPUdip9N42de3+vnrSryd+N33WTYI2uwjZOceKJkEedY4D6BotoL0Ce7mq4bopKOo207y7rUFZr2nQdN2AGFxTT7nXY457fLrtLIJxFyE7fuVgHANvm7r2ex36k29N/NzQJJgfdY6DdDSnhugKudDBh3S0gPYKbEwzBr6U09RzNwlMC7/2sQhvnWcM+5O+mx73s9/Nvtqvy28M6Cpk5xqr+Phtv2maDJimznEAXaMFtFdgL1djSLRvKGh7xzpuN0mgtODqfW3euG8gmDS4xu1TznQYd9+T2lXItkbBqVed5q7zjB+JmPTMg/j4bb9pmgzYH3WOg3Q0p4boCrnQwYd0tID2Cmwcrwb4lHfQSzQJJlHva9LP5sfArMaGwaxDcB/eiV/KWMXHr1rD4PsX3EHDYIbqHAfQNVpAewX2cjTlXf2objuuoaDG8Kr76Dvl9Xf+dV3KZ/n1egEp28dQPMnv0GZXTYJJ1Odm0jM94uNXrWFw4rof0jAYmDrHQTqaU0N0hVzo4EM6WkB7BTaOd5LrEZh9bxJoeJ30vrwmgfrfP7m2Ov+GB919J7UPTYKljJXXJFDf++WfcsHCGahzHEDXaAHtFdjLUf0YQUrA1u1Tv2JQA6wG6aZ39OP2Ke/0a4MgJaRP0hRJtQ9NAg36qRdJjHpNAvXD3/ooFywciDrHQTqaU0N0hVzo4EM6WkB7BTa2q59hT30nuc9NAm14THNdgdgkiPvaxQB3O/jKxWNG7Xf/1pkblvSOeekmwVLHqv74T153b/Xmvc9bPGY0nl1Q3x/T1DkOoGu0gPYK7OWmvmOf+q667jPJ6fpNZxP8+BdnvOzd6tg8GPeYbP89v7f3aNvUwB8fx6w+amCWbhJM07hR64//jGt/MrqQZTxmNJ5dUN8f+6POcZCO5tQQXSEXOviQjhbQXoGN7eo756nhva9NAgu98WsA//d3HD/R5+uj9SZB1Jop9a8ZnOT39yzZJJjFWDU9fhurPf/xF1uM1bT3gTQJIC9aQHsF9nJTw+UkAXfaswnavkFBjaE19dh2UcSU0+Lj1zhOcuwUSzYJ7LmIv9O0H59oevzWhPnc8V/Y4isZZ/URDexGneMgHc2pIbpCLnTwIR0toL0CG5u10BtD3CTvJPexSaABfinhvalJoNp92VkX07z7rpZqEsxqrMY9fmsWHHjy+tF9dXn2yLyrcxxA12gB7RXYy8lpziKITns2QYr6cYBJT5tvs8vHXKpJ8KOf/3gxwC/ldxr3+G3svnXOYaP7muVzgrNX5zhIR3NqiK6QCx18SEcLaK/ARl9tEEz6Lm+fmgTxXev4uyz13f2UJsGszN0kmPVYlTwTYjmpcxxA12gB7RXYy8lJP8tfd9qzEMYZA+s0X7PY5lJ/3zZzNwniO/zx91lq06NUkwNnr85xkI7m1BBdIRc6+JCOFtBegY1bOougqIH/P37gtOr/2/3ssdo77/E+Z9EksN9D3xGf9nepO8smwWW/fbTVGLL/+vBr3PWqd/xUuxormgR51DkOoGu0gPYK7OWinnY/7enj+o7/rE5B18bDLN+x1gbBNM0H+zhDmzFk/+0J+7rrVe/4qVpzQM8eMGdxVgRNgvlR5zhIR3NqiK6QCx18SEcLaK/AxgUtKMZTv2NQtAvKTXP1eW0STONSmgSXrn9kdCFB/T3MSb++r8lZNQmuuOWxlz3GpTjNmHU9VjQJ8qhzHEDXaAHtFdjLQT3t3lxKGI/hcqnHMTX8zvJ6AdogmKaZoQ2VWTjNOF1561WjCzTWH8eszragSTA/6hwH6WhODdEVcqGDD+loAe0V2MvdeHX+elDc9YDLpg6K+nEDu2q99853XQusk3zc4LQr76uOv/TuUWPjgweu2+JMBNXOZLBvGfCOMY1DbBKUGiuaBHnUOQ6ga7SA9grs5aCG5qWG8WkuYFi3fur8rIKvHTd+84FpDYJpvsYvZ5Pg7OvOqU69avP/ZeccVu1+xCeqN33uze4x/p+9tk66AGSqNAnmR53jIB3NqSG6Qi508CEdLaC9Anu5GsNu3Vl8HZ01Ceyr7v77J9cmn7JuZzLEMHvlLY+726gxgDbZ1dfq5bwmwawsNVY0CfKocxxA12gB7RXYy0ULmO/Y751L/oiABfHvXnjk1KG+fur8Rw/bfSYNgvpx7av7ZvFxiK7VMzM8u/oKQpoE86POcZCO5tQQXSEXOviQjhbQXoG9XK1/JMAC/fk3POhu20f1O/zjdQ8+fPAV1UmX3eNuPyuH2CQoNVY0CfKocxxA12gB7RXY2L033nfT4pXyZx1+7fv9t9/vzxePa86q8ZBDPTPDzhZ4y77vqD5x5N9UP/7FGe72s5Imwfyocxykozk1RFfIhQ4+pKMFtFdgL2ftowb2DvIsPn+eWzvz4Gun3uyu61I7Hd9Ctn0cw1vfR0uNlV0A08bqi8ff6K7H2ahzHEDXaAHtFdjYvRqE7aJ7B/zo72f28QK91oI1Hqb5eEFJ7Xf49tp/dNd1qX3cwxoSB57+dXc9Dked4yAdzakhukIudPAhHS2gvQIbEXHI6hwH0DVaQHsFNubRziTo4rR5C9mfOvoznRwbcQjqHAfpaE4N0RVyoYMP6WgB7RXYiIhDVuc4gK7RAtorsBERh6zOcZCO5tQQXSEXOviQjhbQXoGNiDhkdY4D6BotoL0CGxFxyOocB+loTg3RFXKhgw/paAHtFdiIiENW5ziArtEC2iuwERGHrM5xkI7m1BBdIRc6+JCOFtBegY2IOGR1jgPoGi2gvQIbEXHI6hwH6WhODdEVcqGDD+loAe0V2IiIQ1bnOICu0QLaK7AREYesznGQjubUEF0hFzr4kI4W0F6BjYg4ZHWOA+gaLaC9AhsRccjqHAfpaE4N0RVyoYMP6WgB7RXYiIhDVuc4gK7RAtorsBERh6zOcZCO5tQQXSEXOviQjhbQXoGNiDhkdY4D6BotoL0CGxFxyOocB+loTg3RFXKhgw/paAHtFdiIiENW5ziArtEC2iuwERGHrM5xkI7m1BBdIRc6+JCOFtBegY2IOGR1jgPoGi2gvQIbEXHI6hwH6WhODdEVcqGDD+loAe0V2DiZp191X/W/v+P46vq7nx7dvuKWx6pXvvPE6t+87djqJ9c+8LLt1Y9/8+qk7Wblyevurb5wzA3uOvWWh56v/t2qU7b4vSbxkB//pnrDbmdWv31wk7sesUt1jgPoGi2gvQIb83nO9edWr17z2mr9xptHt6+587rqtR95XfXer+3ysm3r7n30p6vf/8Brqgt+dZG7vi8efv53qj/77HbVHY/c6a5HnLU6x0E6mlNDdIVc6OBDOlpAewU2phvD9Ke+e+3istgk+L3tjh4blHM2CayZYY9ph89d6K5Xl9ok8MYFMZc6xwF0jRbQXoGNebzz0burP9zjDdXfnfSlxWXz2CTwfk/ELtU5DtLRnBqiK+RCBx/S0QLaK7AxXQv59SCtTQKzLSj3tUkwC+1sgpxnSSBGdY4D6BotoL0CG/NoIV/PIjDnsUlg2tkEQ3msOHx1joN0NKeG6Aq50MGHdLSA9gpsTDM2A+pNgLj8P37gtLEfO5jnJkE8myDX/SFGdY4D6BotoL0CG7s3NgPq767Pa5Mgnk2Q8nshLlWd4yAdzakhukIudPAhHS2gvQIb02wK+LFJYOHY3k23YN70sYO2JoFdP+DP9jxn8YwEazp868wNW2zTdPwY0G3d4WffOrqfeJxoW3hv+rjBiT+9e3Rf8Rj22Hc94LLGj1TkbIIgRnWOA+gaLaC9Ahu7tyngz6pJcP3dN1R/sf/O1St3edWi79jvndW6DVdssd09T9xb7Xzg+0bHOfeG86vPHf+Fxe233udN1YnrfrjF9tHU46tDamrgsNU5DtLRnBqiK+RCBx/S0QLaK7BxvDFEe+FfmwS3P/pCtf1nLhgFau9jB00hOoZ/Tw33TcevNw9m0SRoe0xNTZB49gLXJsCc6hwH0DVaQHsFNnZrfFfdu5jfLJoEdmq/hve6evZCbBJ425lLPb5qF2lsW484K3WOg3Q0p4boCrnQwYd0tID2Cmwcb1v41SaB3vaaAV6TIG7/hx86vTr/hgcXl1992xOLDQE7OyAuj48lBvqm+5vk4wb1JkG8bcf8/gV3LG7X9Jiibc0UxK7UOQ6ga7SA9gps7Na2sLzUJkHc347/0cN2X2xCWDMgniWg+2iTwJZ/96KjRsvtTIG4XB/LpMdX25ojiLNU5zhIR3NqiK6QCx18SEcLaK/AxvHGd9W9YFxvEphNHwvwmgRtp+g3he54psA7Pn1B45kLs2gS1D9+MM54psOk+yEuRZ3jALpGC2ivwMZuje/EH33JcS9bpyE8xXogt8aBLW96tz7edwz+2iSo7xObGdokmPT4aryv+sUaEWetznGQjubUEF0hFzr4kI4W0F6BjeONoTy1SdD0sYB6Q0C3a7MeumOIj+u9d+6X0iTQx2WP971f/ukWZxQ0GfdranogdqHOcQBdowW0V2Bjt8agPesmQQzhTe/km/Hd/BjUtUlQfzzxscR3/qc5vq5L2R9xFuocB+loTg3RFXKhgw/paAHtFdg43rZ3+70mgS7X/erHqYf9Jr135vWaAV7zYilNAlsWH3+8j+h//+TaLT4WUbdtrBC7UOc4gK7RAtorsLFbm64lYMZgPs3HDdoCerSpSeA9nnqTYJrj19e3/e6Is1LnOEhHc2qIrpALHXxIRwtor8DG8U7TJDC9Cwp6TYJpTs+3Y8Xg7l0rYalNAtPODDjw5PWjxx/vq+0+TZoEmFud4wC6Rgtor8DGbqVJQJMAu1XnOEhHc2qIrpALHXxIRwtor8DG8cZAnvpxg2j9YwdNTYJJQ3VsANh+9bMV6tsspUmg2u9iX9P45r3PGx3X25aPG2AJdY4D6BotoL0CG7vVgrJ3er+5lCZByun89eA/SZNgmuPrupT9EWehznGQjubUEF0hFzr4kI4W0F6BjeOd9MKF3noLzvaOfD1AxwaEt3/cV685oI0HezzxsdX3n3WTINq2bXxsKcdBnJU6xwF0jRbQXoGN3Zpy4cJpmgRxmR170gsXpjQJbNmkx1fjfbWdiYA4C3WOg3Q0p4boCrnQwYd0tID2Cmwcb1vgHtckMPX6AfUmQTy2+deHX7PYDLCvG/yzPc8ZLddT++sfYYih3ZZpE8NrMDRZD/5xX7ut1x+wJsD+J920xf17x0m5T8RZqXMcQNdoAe0V2Nit3rcGRJfaJIj72/GbvqLQjA2KSZsEkx5fjR9F8M4yQJylOsdBOppTQ3SFXOjgQzpaQHsFNo63LfymNAn03X/vVHxtItTV+4yPo6nRoO/gx8cVjxMfnzYA4rb1JoEt02se1PV+BzM+jqbrFSB2oc5xAF2jBbRXYGO3toXlpTYJzPhufpN6FsCkTQJzkuOrsTnStB5xVuocB+loTg3RFXKhgw/paAHtFdiYZtMF+VKaBGbcrilg2+f945kDMYh/4ZgbtmhKNH00QZsQGtC/deaGxUZBbDakNgnME39692i/+JhM+zrEi3/18OI2atMYIXapznEAXaMFtFdgY/c2BfxZNAnM6+++ofqL/XfeIry/Y793Vus2XLHFdtM0CczU46ttjxdxluocB+loTg3RFXKhgw/paAHtFdiYZgzX8/gueVOTYBLjMcY1SxBnrc5xAF2jBbRXYGP3xgC+XN5Vj2dPpDQ/EJeqznGQjubUEF0hFzr4kI4W0F6BjenaO+VLCdJ9NTZAlnItAfvIBGcRYAl1jgPoGi2gvQIb82jvrC+Xi/jZRxQ4iwBzqXMcpKM5NURXyIUOPqSjBbRXYGO68d3yeTqbQK89MO1ZAJxFgCXVOQ6ga7SA9gpszGN8d33ezybgLALMrc5xkI7m1BBdIRc6+JCOFtBegY2TaRfnm5ezCfRaBn/4odOn/p3sLIKlnIWAuBR1jgPoGi2gvQIb82kX85v3swnsLAK+0QBzqnMcpKM5NURXyIUOPqSjBbRXYCMiDlmd4wC6Rgtor8BGRByyOsdBOppTQ3SFXOjgQzpaQHsFNiLikNU5DqBrtID2CmxExCGrcxykozk1RFfIhQ4+pKMFtFdgIyIOWZ3jALpGC2ivwEZEHLI6x0E6mlNDdIVc6OBDOlpAewU2IuKQ1TkOoGu0gPYKbETEIatzHKSjOTVEV8iFDj6kowW0V2AjIg5ZneMAukYLaK/ARkQcsjrHQTqaU0N0hVzo4EM6WkB7BTYi4pDVOQ6ga7SA9gpsRMQhq3McpKM5NURXyIUOPqSjBbRXYCMiDlmd4wC6Rgtor8BGRByyOsdBOppTQ3SFXOjgQzpaQHsFNiLikNU5DqBrtID2CmxExCGrcxykozk1RFfIhQ4+pKMFtFdgIyIOWZ3jALpGC2ivwEZEHLI6x0E6mlNDdIVc6OBDOlpAewU2IuKQ1TkOoGu0gPYKbETEIatzHKSjOTVEV8iFDj6kowW0V2AjIg5ZneMAukYLaK/ARkQcsjrHQTqaU0N0hVzo4EM6WkB7BTYi4pDVOQ6ga7SA9gpsRMQhq3McpKM5NURXyIUOPqSjBbRXYCMiDlmd4wC6Rgtor8BGRByyOsdBOppTQ3SFXOjgQzpaQHsFNiLikNU5DqBrtID2CmxExCGrcxykozk1RFfIhQ4+pKMFtFdgIyIOWZ3jALpGC2ivwEZEHLI6x0E6mlNDdIVc6OBDOlpAewU2IuKQ1TkOoGu0gPYKbETEIatzHKSjOTVEV8iFDj6kowW0V2AjIg5ZneMAukYLaK/ARkQcsjrHQTqaU0N0hVzo4EM6WkB7BTYi4pDVOQ6ga7SA9gpsRMQhq3McpKM5NURXyIUOPqSjBbRXYCMiDlmd4wC6Rgtor8BGRByyOsdBOppTQ3SFXOjgQzpaQHsFNiLikNU5DqBrtID2CmxExCGrcxykozk1RFfIhQ4+pKMFtFdgIyIOWZ3jALpGC2ivwEZEHLI6x0E6mlNDdIVc6OBDOlpAewU2IuKQ1TkOoGu0gPYKbETEIatzHKSjOTVEV8iFDj6kowW0V2AjIg5ZneMAukYLaK/ARkQcsjrHQTqaU0N0hVzo4EM6WkB7BTYi4pDVOQ6ga7SA9gpsRMQhq3McpKM5NURXyIUOPqSjBbRXYCMiDlmd4wC6Rgtor8BGRByyOsdBOppTQ3SFXOjgQzpaQHsFNiLikNU5DqBrtID2CmxExCGrcxykozk1RFfIhQ4+pKMFtFdgIyIOWZ3jALpGC2ivwEZEHLI6x0E6mlNDdIVc6OBDOlpAewU2IuKQ1TkOoGu0gPYKbETEIatzHKSjOTVEV8iFDj6kowW0V2AjIg5ZneMAukYLaK/ARkQcsjrHQTqaU0N0hVzo4EM6WkB7BTYi4pDVOQ6ga7SA9gpsRMQhq3McpKM5NURXyIUOPqSjBbRXYCMiDlmd4wC6Rgtor8BGRByyOsdBOppTQ3SFXOjgQzpaQHsFNiLikNU5DqBrtID2CmxExCGrcxykozk1RFfIhQ4+pKMFtFdgIyIOWZ3jALpGC2ivwEZEHLI6x0E6mlNDdIVc6OBDOlpAewV237zszk3VoZc/We1x1qPVW456sPq3B9yLiBn808MfqD546sPVVy55vFq74Vn39dlHdY4D6BotoL0Cu29eu/G66rgbTqz2/9lXq4+c+bHqTd/fDhEz+JenfqD63EVfqI645rvVZXdd7r4++6jOcZCO5tQQXSEXOviQjhbQXoHdJ/e98HE3vCBifq1hsP6hF9zXap/UOQ6ga7SA9grsPvkPV/+jG14QMb/WMLj1sdvc12qf1DkO0tGcGqIr5EIHH9LRAtorsPvgz+99fouzBt529EPVx898rPrWlU9XZ294vjr/thcQsWPt9bb32serlSc9XL36wPtGr8XXH7qxOmN9v88q0DkOoGu0gPYK7D544+9u2uKsgd3O+nj1lZ8dUJ34q5Oqy+5ZV11531WI2LH2evvaFYdUe52/T7XdMW8bvRbf9YN3Vxffcan7uu2LOsdBOppTQ3SFXOjgQzpaQHsFdmlvfeTF6k1H/m4USF53yMbq6+uecgMMIubz2F8+V/3J4Q8sNgqu3/i8+/rtgzrHAXSNFtBegV3au5+4p/rgjz88CiQ7nviu6tgbjnMDDCLm88wNZ1XvO/X9i42Cmx/+rfv67YM6x0E6mlNDdIVc6OBDOlpAewV2aeNHDP7zN++vTv/NJjewIGJ+7SweO6vHXp/vPuEh9/XbB3WOA+gaLaC9Aru08SMGf3HSe6qL77rEDSyImF87i8fO6rHX555r93Jfv31Q5zhIR3NqiK6QCx18SEcLaK/ALulFtz03CiCmnersBRVELOcpv36ueu3X7x+9Ro+65mn3dVxaneMAukYLaK/ALulV9149CiCmnersBRVELOf5t19Yvf24HUev0dPWn+6+jkurcxykozk1RFfIhQ4+pKMFtFdgl/Sgy54YhY+dTnjYDSiIWN5Pnv3Y6HVq3zjivY5Lq3McQNdoAe0V2CU96rpjRuHjk2v/xg0oiFjer647cPQ6tW8c8V7HpdU5DtLRnBqiK+RCBx/S0QLaK7BLaldPt/BhF0vzwgkilvfwnz8zep3atUO813FpdY4D6BotoL0Cu6R29XQLH3axNC+cIGJ5T/71qaPXqV07xHsdl1bnOEhHc2qIrpALHXxIRwtor8AuqX0vu4UPCyFeOEHE8tq1Cex1+pqD7nNfx6XVOQ6ga7SA9grsktr3slv4sBDihRNELK9dm8Bep28+9u3u67i0OsdBOppTQ3SFXOjgQzpaQHsFdkkteJh8zSFiv42vVe91XFqd4wC6Rgtor8AuqQUPk685ROy38bXqvY5Lq3McpKM5NURXyIUOPqSjBbRXYJc0Bg8vlCBif6RJALCAFtBegV3SGDy8UIKI/ZEmwfyhOTVEV8iFDj6kowW0V2CXlCYB4jCkSQCwgBbQXoFdUpoEiMOQJsH8oTk1RFfIhQ4+pKMFtFdgl5QmAeIwpEkAsIAW0F6BXVKaBIjDkCbB/KE5NURXyIUOPqSjBbRXYJeUJgHiMKRJALCAFtBegV1SmgSIw5AmwfyhOTVEV8iFDj6kowW0V2CXlCYB4jCkSQCwgBbQXoFdUpoEiMOQJsH8oTk1RFfIhQ4+pKMFtFdgl5QmAeIwpEkAsIAW0F6BXVKaBIjDkCbB/KE5NURXyIUOPqSjBbRXYJeUJgHiMKRJALCAFtBegV1SmgSIw5AmwfyhOTVEV8iFDj6kowW0V2CXlCYB4jCkSQCwgBbQXoFdUpoEiMOQJsH8oTk1RFfIhQ4+pKMFtFdgl5QmAeIwpEkAsIAW0F6BXVKaBIjDkCbB/KE5NURXyIUOPqSjBbRXYJeUJgHiMKRJALCAFtBegV1SmgSIw5AmwfyhOTVEV8iFDj6kowW0V2CXlCYB4jCkSQCwgBbQXoFdUpoEiMOQJsH8oTk1RFfIhQ4+pKMFtFdgl5QmAeIwpEkAsIAW0F6BXVKaBIjDkCbB/KE5NURXyIUOPqSjBbRXYJeUJgHiMKRJALCAFtBegV1SmgSIw5AmwfyhOTVEV8iFDj6kowW0V2CXlCYB4jCkSQCwgBbQXoFdUpoEiMOQJsH8oTk1RFfIhQ4+pKMFtFdgl5QmAeIwpEkAsIAW0F6BXVKaBIjDkCbB/KE5NURXyIUOPqSjBbRXYJeUJgHiMKRJALCAFtBegV1SmgSTue7uy6vtv/Ku6vff/5rq2CuPc7cxj7r86OqVu7zK1fZddfBfVj+89pQt9vnpnZdV/2n3/1r9+QF/scXyqHesVL3j4bCkSTB/aE4N0RVyoYMP6WgB7RXYJaVJgDgMaRIALKAFtFdgl5QmwWSe/qszq3/34T8YBe9PHvM37jZmW5MgWm80pDQJvOXjnHY/7Jc0CeYPzakhukIudPAhHS2gvQK7pDQJEIchTQKABbSA9grsktIkmMyPHPFX1f+9+t9XO3/tvaN/z/vtee52sUlw0DkHv2ydnY2w+/f2GK3XhgBNAmyTJsH8oTk1RFfIhQ4+pKMFtFdgl5QmAeIwpEkAsIAW0F6BXVKaBOlqiD/sksMbmwBmW5PAjB9b+H/3eWN16R0/HS3j4wbYJk2C+UNzaoiukAsdfEhHC2ivwC7pJE2C39vuaHd5m7bPNPupS91/Gmd1n+OOU+J3M5vuNy6vr297nNOuw8mkSQCwgBbQXoFdUpoE6Wrwj4FeQ37TtvV10XhWQjwbYZozCZoaADQG5k+aBPOH5tQQXSEXOviQjhbQXoFd0kmaBGZK6LNtot56z7Z9xh1H9422rVP1OLqP/qvLm9TtVG9bc9x6U4/j6e1T19vP9NbpsqafPdu2bdp33DHx5dIkAFhAC2ivwC4pTYI04zv/Guot5DddwLCrMwn051T1GDhcaRLMH5pTQ3SFXOjgQzpaQHsFdkknbRKYMeDZv5717etOus+49dPadFxdnnLf0x4n5X5suWdcV9+27baq6+xnb19veV1vvS6rr085JvrSJABYQAtor8AuKU2CNOMFC/VihXGZF+rbmgRn37y2WnPYbqP1erxJmwS6bpJlOExpEswfmlNDdIVc6OBDOlpAewV2SadpErQ5TQAct0/b+hg6Pb3tVW+b1GXqNMeZxf1Meltt29Z+jrfry+PP3jJvv7hM1+F00iQAWEALaK/ALilNgjS9swa8swuisUnQZn0/ziTANmkSzB+aU0N0hVzo4EM6WkB7BXZJU5sEqQEvZTsNjU2O265+zGmsH2fccfX+63rbtzmLffT+m0zZvr4+/uwtry9T6+v1X1y6NAkAFtAC2iuwS0qTYLwxvHsBPFr/OsS2JoE1G/7yG+9/2bUMOJMA26RJMH9oTg3RFXKhgw/paAHtFdglTW0SmCmBb5pQOG6f+vpZBU/vOLasbn2buk3b1I8ziU3HW8pt1Vuny5p+ntSmfZdyzOUqTQKABbSA9grsktIkGG/KWQH1CxiOuyaBJ2cSYJs0CeYPzakhukIudPAhHS2gvQK7pJM0CcwY7uzfSa0fp0ndLm477nZdXd9k23apxzCbtp3kGGrq8Sa9rTZtO+7fSW3ab9rjLWdpEgAsoAW0V2CXlCZBu20fKYjaRxEsjGtDoOsmAS4/aRLMH5pTQ3SFXOjgQzpaQHsFdkknbRKMMzX86XZNPzctS72PqG3fpLe9WV9X36/J+j6T7D/JfvXtUm7r8ui42/Xl8RhN25m6zSTbYbs0CQAW0ALaK7BLSpOg3baLE0a9bXI0Cez2OHV7HLY0CeYPzakhukIudPAhHS2gvQK7pCWbBE1627bdHmfq9vH+PZu295ZHdf0stq0vt9vj1O3r+8Wf6+vry1O2aVuGs5EmAcACWkB7BXZJaRK0++UzDhiF7bawH8820AsbzrpJ4AX+cU0AmgTzJU2C+UNzaoiukAsdfEhHC2ivwC5pySbBuJ+blnm369bX6+0UvX2Wctxx26Yca5bHmPRY3vYpy8bdD6ZLkwBgAS2gvQK7pDQJmo2hve2jBtHYTIgXMMzVJBhnfR8crjQJ5g/NqSG6Qi508CEdLaC9Aruk0zQJ2oJfaii07Zr0tm27Pc7U7XW71J+b1tWN27bp7aeO22aSY+i/k1g/lmd9G709bjk2S5MAYAEtoL0Cu6Q0CYahF/jHNQFoEsyXNAnmD82pIbpCLnTwIR0toL0Cu6RLbRLEYNim7uvZto23LuWYaur2ul3qz/G2Lvcctz7Fpd6Hrq9vO+62p7dNynFTjo0vlyYBwAJaQHsFdklpEvTfprBvy8fp7YfDlCbB/KE5NURXyIUOPqSjBbRXYJd00ibBuBBYNyUQtm3jrfMeQ936er3dZty2/m9dWz5uGzVlm3HG+9T7HWf9GNH6Om9bXTZufdMyu63qOpxMmgQAC2gB7RXYJaVJgDgMaRLMH5pTQ3SFXOjgQzpaQHsFdklLNQliaPSsb6e3vWWT3labtm3ax5bXt2naVo37jXPcfvX16rj1an1b7/jxdtNx4z5169vobZxemgQAC2gB7RXYJaVJgDgMaRLMH5pTQ3SFXOjgQzpaQHsFdkknaRJ4gW9cCEwJiU3bpC6f9LY6yX20HbfpONFx682UbdqcZP+mx14/Ruq6pmXeNm3LsVmaBAALaAHtFdglpUmAOAxpEswfmlNDdIVc6OBDOlpAewV2SfvSJFB1uW7XtHzS22rbfUS99WZ93STbeqZs0+Yk++u23n62LC6v/6vb6G1vmbdN23JsliYBwAJaQHsFdklpEiAOQ5oE84fm1BBdIRc6+JCOFtBegV3S1CZBW9gbZ8o+3jb1223b1k3ZJtq0je6vpmxTV/dp09vX09u3yab99V9d7u3jLdfbcX19m/o6tb4dtkuTAGABLaC9ArukNAkQhyFNgvlDc2qIrpALHXxIRwtor8AuaWqTABHLSpMAYAEtoL0Cu6Q0CRCHIU2C+UNzaoiukAsdfEhHC2ivwC4pTQLEYUiTAGABLaC9ArukNAkQhyFNgvlDc2qIrpALHXxIRwtor8AuKU0CxGFIkwBgAS2gvQK7pDQJEIchTYL5Q3NqiK6QCx18SEcLaK/ALilNAsRhSJMAYAEtoL0Cu6Q0CRCHIU2C+UNzaoiukAsdfEhHC2ivwC4pTQLEYUiTAGABLaC9ArukNAkQhyFNgvlDc2qIrpALHXxIRwtor8AuKU0CxGFIkwBgAS2gvQK7pDQJEIchTYL5Q3NqiK6QCx18SEcLaK/ALilNAsRhSJMAYAEtoL0Cu6Q0CRCHIU2C+UNzaoiukAsdfEhHC2ivwC4pTQLEYUiTAGABLaC9ArukNAkQhyFNgvlDc2qIrpALHXxIRwtor8AuKU0CxGFIkwBgAS2gvQK7pDQJEIchTYL5Q3NqiK6QCx18SEcLaK/ALilNAsRhSJMAYAEtoL0Cu6Q0CRCHIU2C+UNzaoiukAsdfEhHC2ivwC7pHxx8/yh4HPvL59xggoj9kCYBwAJaQHsFdklpEiAOQ5oE84fm1BBdIRc6+JCOFtBegV3S9/3woVHw+NIlT7rBBBHL+71rnx29Tv/08Afc13FpdY4D6BotoL0Cu6Q0CRCHIU2C+UNzaoiukAsdfEhHC2ivwC7pvhc+Pgofq0971A0niFjefS98cvQ6taae9zourc5xAF2jBbRXYJeUJgHiMKRJMH9oTg3RFXKhgw/paAHtFdglPflXz4zCx2u/fn91yq/5yAFi3zx7w/PVnxz+wOh1+pVLHndfx6XVOQ6ga7SA9grsktIkQByGNAnmD82pIbpCLnTwIR0toL0Cu7Q7HvvgKIC87eiH3JCCiOX8+JmPjV6fW317Y3XrIy+6r+HS6hwH0DVaQHsFdklpEiAOQ5oE84fm1BBdIRc6+JCOFtBegV3a6zc+v3gBw5UnPVyd/ptNblhBxHzaGQS7/XihQWCesf5Z9/XbB3WOA+gaLaC9ArukNAkQhyFNgvlDc2qIrpALHXxIRwtor8Dug0dd83T1moPuG4WR1x2ycXQhQ77xADG/9rGfr697avEjBuZBlz3hvm77os5xAF2jBbRXYJeUJgHiMKRJMH9oTg3RFXKhgw/paAHtFdh98bI7N1VvOWrhoweImN9XH7jQqIu+/tCN1doN/T2DIKpzHEDXaAHtFdglpUmAOAxpEswfmlNDdIVc6OBDOlpAewV23zz08ierd5/w0Ogz0BpYELF7rTFgrz+7SOH6h15wX6N9U+c4gK7RAtorsEtKkwBxGNIkmD80p4boCrnQwYd0tID2CmxExCGrcxxA12gB7RXYJaVJgDgMaRLMH5pTQ3SFXOjgQzpaQHsFNiLikNU5DqBrtID2CuyS0iRAHIY0CeYPzakhukIudPAhHS2gvQIbEXHI6hwH0DVaQHsFdklpEszOV+7yqi3+naVtx+zi/rB/0iSYPzSnhugKudDBh3S0gPYKbETEIatzHEDXaAHtFdglpUmQblMYrzcHugjtdsy6betM3V/1tlW9fbC8NAnmD82pIbpCLnTwIR0toL0CGxFxyOocB9A1WkB7BXZJaRKk2xSguw7Wevz6fY1bV7e+nf7s3cb+SJNg/tCcGqIr5EIHH9LRAtorsBERh6zOcQBdowW0V2CXdEhNghh02/T2m5VNx+/yfr1jx2Vt69qW6e22ddgvaRLMH5pTQ3SFXOjgQzpaQHsFNiLikNU5DqBrtID2CuySDqlJMM4uAq4dcxq9Y83a1Pupb6eP01O3xf5Ik2D+0JwaoivkQgcf0tEC2iuwERGHrM5xAF2jBbRXYJe0ZJNg1sG064DbdPwu7zeOzzTqMerHTFmH/ZImwfyhOTVEV8iFDj6kowW0V2AjIg5ZneMAukYLaK/ALulyaRLM4j6ajjHu2Eu572n31f3qx0hdh/2SJsH8oTk1RFfIhQ4+pKMFtFdgIyIOWZ3jALpGC2ivwC7pvDQJUo6h95eit399WdtyVY+bou43yTHGbesdM/7s3cb+SJNg/tCcGqIr5EIHH9LRAtorsBERh6zOcQBdowW0V2CXtGSTYJbmCLdN95ErWI+7n9THZ7fb1G2xP9IkmD80p4boCrnQwYd0tID2CmxExCGrcxxA12gB7RXYJaVJsHRz3bcG+Sab9vOWm23rsF/SJJg/NKeG6Aq50MGHdLSA9gpsRMQhq3McQNdoAe0V2CWlSbA0c97vtPdFk2A+pEkwf2hODdG1/7zpvavfuM3K1fuuWLXmxG1Wrbk4uvn2abZ8m5Uf3HnrXXf9l2Hz3qKDD+loAe0V2IiIQ1bnOICu0QLaK7BLSpNgaeZuEqTYtl/Kcer7Yz+kSTB/aE4N0bWfbPeej7xqm5WrD9tm1Zr7N1uNdeWaZ62JYA2FcIjeoYMP6WgB7RXYiIhDVuc4gK7RAtorsEs6lCaBF2bH6R1nlua4DzXl/nSbOA5t+6UcE/shTYL5Q3NqiK79Yuuddn3FNqtWH6wNgF0/+ZnqW98/obpg3VXVT6++dgsPP+6H1Zq9P79lw2DhTIPXh0P2Bh18SEcLaK/ARkQcsjrHAXSNFtBegV3SoTQJ+uS44N2VKfc56eOiSTAcaRLMH5pTQ3TtDwsfK1jzWAz7Xzr0iOqGmzdUDz36+FhvufPuUcNgx9W7LzYLVqxcvU84dC/QwYd0tID2CmxExCGrcxxA12gB7RXYJaVJMBxjc2Kc3r5Rb3tPb18sK02C+UNzaoiu/WDFzms+EcP9HvvuX11z43q3GTBOaxZ89R+OlEbBh47qy/UKdPAhHS2gvQIbEXHI6hwH0DVaQHsFdklpEiAOQ5oE84fm1BBdy2Pv+MdQf/B3j3HD/6SeecEl1Vt32W2hUbBqzWnhroqigw/paAHtFdiIiENW5ziArtEC2iuwS0qTAHEY0iSYPzSnhuhaljftvPrNsUFw6jkXuIF/Wq+47obFRsFm9w93WQwdfEhHC2ivwEZEHLI6xwF0jRbQXoFdUpoEiMOQJsH8oTk1RNdyjC5SGK5BYBcm9IL+Ul17yWWxSVBZQyLcdRF08CEdLaC9AhsRccjqHAfQNVpAewV2SWkSIA5DmgTzh+bUEF3LEb7icHQNAi/gz0q7oKHdz4pVq9eXvD6BDj6kowW0V2AjIg5ZneMAukYLaK/ALilNAsRhSJNg/tCcGqJrGTaH9tdbcLePA0x7kcJU73/woWrV7nsvNAp2XvOJ8BCyo4MP6WgB7RXYiIhDVuc4gK7RAtorsEtKkwBxGNIkmD80p4boWgb71gEL7bO6UOE448cOVqxac3t4CNnRwYd0tID2CmxExCGrcxxA12gB7RXYJaVJgDgMaRLMH5pTQ3TNj53yH69FsP6WO9xQ34XxbILNvj48lKzo4EM6WkB7BTYi4pDVOQ6ga7SA9grsktIkQByGNAnmD82pIbrmJ36jwcc+s58b5rvyq/9w5EKTYOXqfcNDyYoOPqSjBbRXYCMiDlmd4wC6Rgtor8AuKU0CxGFIk2D+0Jwaomt+4gULjzzpNDfMd+UF666KTYIrwkPJig4+pKMFtFdgIyIOWZ3jALpGC2ivwC4pTQLEYUiTYP7QnBqia35WrFpzmoV1C+1emO9K+2iD3W+p6xLo4EM6WkB7BTYi4pDVOQ6ga7SA9grskg6lSfDKXV7lLp9WO160vlxvz8qm+/LUbXRbb7nZtg7nR5oE84fm1BBd87Ni5errLKx3/a0GnqMzCTYbHkpWdPAhHS2gvQIbEXHI6hwH0DVaQHsFdkmH0iQwx4XhGLKjqetUb119X93GW2fW9/d+9mxaH4+rtq0zdX/V21b19sHy0iSYPzSnhuian80h/X4L6jkvWhjdabc9R02C7d7zkVeFh5MNHXxIRwtor8Dum5fduak69PInqz3OerR6y1EPVv/2gHsRMYN/evgD1QdPfbj6yiWPV2s3POu+PvuoznEAXaMFtFdgl3RITQIzhth6sI3LU2zbdpLjNKnHGHdfnt523s8p6+rWt9OfvdvYH2kSzB+aU0N0zc+KVavXW1C/4eYNbpDv0rfustuoSWDfsBAeTjZ08CEdLaC9ArtP7nvh4254QcT8WsNg/UMvuK/VPqlzHEDXaAHtFdglHVqToMm2cGvrxqnbpu6r26lt68ZZ39c7VlzWtq5tmd5uW4f9kibB/KE5NUTX/GwO6RdbUP/p1de6Qb4r77xvY/y4wf3hoWRFBx/S0QLaK7D74M/vfX6LswbedvRD1cfPfKz61pVPV2dveL46/7YXELFj7fW299rHq5UnPVy9+sD7Rq/F1x+6sTpjfb/PKtA5DqBrtID2CuySDqFJkBJcJwm33ra2zLO+XYq6X/14us5z3Ho1ddv6dvFxNKnbYn+kSTB/aE4N0TU/K1Z+6CgL6z84c60b5rvSzlyw+7VrIoSHkhUdfEhHC2ivwC7trY+8WL3pyN+NAsnrDtlYfX3dU26AQcR8HvvL56o/OfyBxUbB9Rufd1+/fVDnOICu0QLaK7BLWrJJMEkw1W10v3Gm7BO3idvVf9Zto3EbT299fZkeq8nU7ZrU+4o/12+3rcN+SZNg/tCcGqJrXuw0/81B/SwL63t96SA3zHfl4cf9MJ5JcP3WO+36ivCQsqGDD+loAe0V2KX97HkLHzH4z9+8vzr9N5vcwIKI+bWzeLb93sIZPu/74UPu67cP6hwH0DVaQHsFdkmH0iQw27Ybdwxd3/TzuHWpevuNO1bT+lk8hvoxUtdhv6RJMH9oTg3RNR8rVq3ZbXNAH1200HzrLh+t7n/wITfQd+HHPrNfbBJU26xc8+w2K1fvGx5aFnTwIR0toL0Cu6QX3fbcKICYdqqzF1QQsZw/uHFT9dqv3z96jR5//TPu67i0OscBdI0W0F6BXdIhNQnaHHcMva+69e3qP+u2Ud3Gs229rvN+1tv1bcY5blvvmPFn7zb2R5oE84fm1BBdu2d09sDK1YfFgL5m789XH/rUF0Y/H3PqmW6gn7X2dYt2f2/ZZbfqUwcc/FKzYNWaizc/vn8dHmqn6OBDOlpAewV2SQ+67IlR+NjphIfdgIKI5f3k2Y+NXqd7nfOY+zourc5xAF2jBbRXYJe0ZJNglo4Lt03BuC0kjzummbKN2bRdXJ5yv+PuK3U/u92mbov9kSbB/KE5NUTXbrHT+rdZufoKC+T2zQKnnnPBKLSfecElo5BuX0mY42yCT3/1G6P7O/i7x4xu20UT49chrli15vbN/74+POTO0MGHdLSA9grsktopzBY+PnveE244QcTyHv7zZ0avU7t2iPc6Lq3OcQBdowW0V2CXdEhNAg2w9WDrWd+3Sd2mvo/e9kzZxhy3na1P3abNpv285WbbOuyXNAnmD82pIbp2hwXvEMBHgfyK627YIrjbGQW27siTTtti+ay1+7X7sY833HLn3YvL7ef4GBY+fvDBncND7wQdfEhHC2ivwC7pVt/eOAof37v2WTecIGJ57doE9m0HrznoPvd1XFqd4wC6Rgtor8Au6ZCbBLqu7jTBuL483rZ/69a3aTKur/+r2rJofZ06bn2TbftNe0zML02C+UNzaoiu3fCmnVe/ecXK1c9ZALcgruE8uvaSyxbDe1dfh7j+ljsWzxiIZxGodhbD57/27YVGwahZ0N11CnTwIR0toL0Cu6TWIDC9YIKI/TG+Vr3XcWl1jgPoGi2gvQK7pENpEtTD7KSB2m432bZP23JvnadtM+5YTetVW5di234px6nvj/2QJsH8oTk1RNfZs+K9a/44NggsgLd9nOCr/3DkKJzvuHr3UaD3tpnWO+/buHimgF20sO1x2LURYqPALrAYfpWZooMP6WgB7RXYJaVJgDgMaRIALKAFtFdgl3S5NAlUb13bsvo6ve3t5y33bjcdp77tuOVq/ThR3UZNOSb2Q5oE84fm1BBdZ8t27/nIq7Z974c2xgaBF8hVC+72VYi2vfeRhGm1hkNsEKzafW/3TIa6Pzhz7UKTYOXq5+xMiPArzQwdfEhHC2ivwC4pTQLEYUiTAGABLaC9ArukQ2gSeEF2XLgdF4zVuMzbzlunt739vOV2u2lb09tebzctq5uyjTrp9lhOmgTzh+bUEF1nh31LwOaAfZ0F7XHv3Kv2jn/8ekL76EG8uOG0WqMhfsTAGgSTnKFgH0mw/bZZueaxbVd++LXhV5sJOviQjhbQXoFdUpoEiMOQJgHAAlpAewV2SYfcJBhn27b1Y9Vv67J4W/W2r6vrdPu6KduYcbtxevtGve09vX2xrDQJ5g/NqSG6zo7N4fqcGMwt+HshvElrKHzp0CMWAvpmrWkw6XUKrBmg1xdouhbCOOOZDXbRxVl+PaIOPqSjBbRXYJeUJgHiMKRJALCAFtBegV3SITQJEJEmwTyiOTVE19mwOVTvb8Hari1ww80b3PCdop3yb8fQoH/4cT9sPBvAmgB2PYEY7E07G8HOCEg9k6GuNTh2/eRnYqPgtPArLhkdfEhHC2ivwC4pTQLEYUiTAGABLaC9ArukNAkQhyFNgvlDc2qIrktn6512fcXoKwQ3h+ozL7jEDd6TaCHdGgMW9mPwV/fYd//GdXY2wiwugGjHeOsuu42OaRdiDL/qktDBh3S0gPYK7JLSJEAchjQJABbQAtorsEtKkwBxGNIkmD80p4bounS2WbX6YAvTn/7qN9zAvRQvWHfV6BsQ4kUI69o7/tYYsObEpB9xGGe8PoFdZyH8qktCBx/S0QLaK7BLSpMAcRjSJABYQAtor8AuKU0CxGFIk2D+0JwaouvS2ByiX7/Z0dcdXnPjejdsz1q7VsG0HyWYRGs6xAsgbrvygzuGX3lqdPAhHS2gvQK7pDQJEIchTQKABbSA9grsktIkQByGNAnmD82pIbouDfvMvoVoezffC9pD1653YL/fLM4m0MGHdLSA9grsktIkQByGNAkAFtAC2iuwS0qTAHEY0iSYPzSnhug6PZvDs51FMPrs/jTfIjAE7YyFeDbBilVrdgu/+lTo4EM6WkB7BXZJaRIgDkOaBAALaAHtFdglpUmAOAxpEswfmlNDdJ2ebVauPszCs3123wvY86Jd78B+z81eHH71qdDBh3S0gPYK7JLSJEAchjQJABbQAtorsEtKkwBxGNIkmD80p4boOj2bQ/P9Fp6vuO4GN1zPi3Y2QfymA/smh/DrT4wOPqSjBbRXYJeUJgHiMKRJALCAFtBegV1SmgSIw5AmwfyhOTVE1+mwrwW00Lxq973dYD1v2jc32O+7lI8c6OBDOlpAewV2SWkSIA5DmgQAC2gB7RXYJaVJgDgMaRLMH5pTQ3Sdjs2BeX8Lzd/6/gluqJ43Tz3ngiV/5EAHH9LRAtorsEtKkwBxGNIkAFhAC2ivwC4pTQLEYUiTYP7QnBqi63SsWLXmdgvN9nWEXqieN+3rEEcfOVi55tmtd931X4dhmAgdfEhHC2ivwC4pTQLEYUiTAGABLaC9ArukQ24SvHKXV7nLPcdt27Telnumrleblkfb9m/bd9xxcT6kSTB/aE4N0XVytgnfamBX/fcC9by615cOimcTvD8MxUTo4EM6WkB7BXZJaRIgDkOaBAALaAHtFdglXS5NAnOaoO0t12Xj1nvL7V/P+vZq2/beOlP3V71tVW8fLC9NgvlDc2qIrpOzzcoP7mxh+fNf+7YbpufVI086LTYJ9g9DMRE6+JCOFtBegV3SSZoEv7fd0e7yNm2fafZTl7p/Hy39OzXdf1xeX9/2eKddh5NJkwBgAS2gvQK7pENoEnhBNlXvWKnHbNtOj+cZ1+t29WVty1Xdpr79uHV169vpz95t7I80CeYPzakhuk7Oip3XfMLC8nK5HkE0XpdgxcoPHRWGYiJ08CEdLaC9ArukkzQJzJTQZ9tEvfWebfukHEf3n8RZHsv0juc5ybZm/X5S9I4T9dbrsqafPdu2bdp33DHx5dIkAFhAC2ivwC7pEJoETc4y0DYdy1uuy8at95bFn+vbTXqsSbf3bretw35Jk2D+0JwaouvkbLNq9cEWlo859Uw3TM+rdv2FcCbBVBcv1MGHdLSA9grskk7aJDBjwLN/Pevb1510n3HrzZRt6jbtM82xPO040+odb5bqfXj3GZfVl9f11uuy+vqUY6IvTQKABbSA9grski7HJoHtt1THHcu7v/qyttsppu7j3Vebui32R5oE84fm1BBdJ2fFqjUnWlg+84JL3DA9r95w84aFMwlWrV4fhmIidPAhHS2gvQK7pNM0CdqcJgCO2yflmDF8TmrTsVKWtS0f57T7zcr6/ett+zneri+PP3vLvP3iMl2H00mTAGABLaC9ArukJZsESwmmswizTcfQ5bN4bHbbO05cpuua9p3GtmOmrMN+SZNg/tCcGqLr5Ng76RaWl8s3G0TtGw7s97ZvOAhDMRE6+JCOFtBegV3S1CZBasBL2U5DY5PjtvOO2XTb277NlOOPWz7OafdbinafnvX18WdveX2ZWl+v/+LSpUkAsIAW0F6BXdIhNwna9PbxrG876W1vmd6OP3v7NS339p/UtmOkrsN+SZNg/tCcGqLr5MSvP1x/yx1umJ5n37rLR+NHDjCjQ28SmCmBb5pQOG6f+npve13mbd+mbhu3b9tv3DrV22ac9WN0oXc/uqzp50lt2ncpx1yu9r1J8H/sfQNiNmkSvFwLpFFvfZtxH2/fcceL95mqt7/381KX2W21vk19vee4bb1jxp+929gfaRLMHzNpEmwObfdbcFuOTQL72kcNr5jHeWgSmDHc2b+TWj9Ok7pd3Lbtti5L2Xac3jGiKctTTN1H72Nam47r3R7376Q27Tft8ZazNAkQX5ImweycNOTasmh9XbRpnS7X43h6+9SX6fZ1ve3HLVOb1nvHblO3xf5Ik2D+mE2TYOXqKyy4XXHdDW6QnmdjaA1DMRE6+JBObBDMQ5NgnKnhT7dr+rlpWdM2TceJ6zzjNqoujz+n/pvqpNs3Oc1xbJ/ouNv15fEYTduZus0k22G7fW8SRAG6Rgtor8Au6dCbBPXbbSG3vt046/uoTctNb92k23vaduNs2s9bbratw35Jk2D+0JwaouvkrFi15jQLymsvucwN0vOqnTlhv7d93CIMxUTo4EM6WkB7BXZJSzYJmvS2bbvtLdPb3vYpy5uOkfrzUo3HajN1O1WP37S/Lk/Zpm0ZzkaaBAALaAHtFdglHVqTwAu1cdm4wDtNWNbl9nOb3j5Ny5q29/aNtq1rs4tjYn5pEswfmlNDdJ2cbVauPszC8g/OXOuG6XnVzpwIZxLwFYgZ0QLaK7BLWrJJMO7npmXjtvG2b1K30+1TlrUtbzPuM+m+qY+r7bip911fn3o/KfvhdNIkAFhAC2ivwC7pPDQJ2parcRv7dxLrx9FjNK0bt0xvt62rL0+xbb+U49T3x35Ik2D+0JwaouvkrFi5eh8Ly4cf90M3TM+rduZEOJPgxDAUE6GDD+loAe0V2CWdpknQFvxSQ6Ft16S3bdttXeYdw9t+muXRcevb1H2947QdO3X7lGPov5NYP5ZnfRu9PW45NkuTAGABLaC9ArukQ2oSNAXYuHxcwG1bP+7YTcvGrfeW1ddPc4wm6/cT1W3UlGNiP6RJMH9oTg3RdXI2B+X3W1j+0qFHuGF6XrUzJ+z33mbV6oPDUEyEDj6kowW0V2CXdKlNghgM29R9Pdu28dY1LYvL6+vjOk/dTref5HaKTfeny9qO27RukuVt9zXutue4+2i6nXJsfLk0CQAW0ALaK7BLOpQmgRdmvQDsLYvL29Y3qds27Vtf3rTNuHXTLKubso066fZYTpoE84fm1BBdJ2fFe9f8sYXlj31mPzdMz6vWFBmdSbDzmk+EoZgIHXxIRwtor8Au6aRNgnEhsG5KIGzbxls3blnqPk3Wt/Vu19X1qq73tmtbpzatn3R5tL7e216XjVvftMxuq7oOJ5MmAcACWkB7BXZJh9AkqAdZuz0u3Oo23rZxfYr1fdts2qftOKn3EY89Tm/fqLe9p7cvlpUmwfyhOTVE18nZetdd/+U2K9c8ZoF5uXwN4v0PPlTtuHr3UZNg25Uffm0YionQwYd0tID2CuySlmoSxNDoWd9Ob3vLUm576ja67bhlTfuq3n007TfueG3rZ7XObnvL9N+6cZ+69W30Nk4vTQKABbSA9grskg6hSYCINAnmEc2pIbpOx4qVHzrKAvORJ53mhup586dXXxuuR7B6fRiCidHBh3S0gPYK7JJO0iTwAt+4EJgSEpu2SV3edNv+1Z+9bep6y1P3HafuZz/Xb8ef1XH3Ne36pvuub5+6rmmZt03bcmyWJgHAAlpAewV2Sbc//p2j4HHOree6wQQR++F2x7yNJsGcoTk1RNfp2GblB3e20LxcPnLw1X84cuF6BCtX7xuGYGJ08CEdLaC9ArukfWkSqLpct2taPu62Lo96601vXX1Z2/5txvtu2r9tXZOTbh/V/bxj6GOp/6vb6G1vmbdN23JsliYBwAJaQHsFdkn3XLvXKHgcce133WCCiOU9c8NZo9fpX576Afd1XFqd4yAdzakhuk5H+MjBsxacb7nzbjdYz5M77bbnQpNg1ZrXhyGYGB18SEcLaK/ALmlqk6At7I0zZR9vm/ptb9u2fXWf+nbe8vrP0xj3945TX9fkuO31mG3btRn3q+/fdExvud6O6+vb1Nep9e2wXZoEAAtoAe0V2CX9xpXfGoWPz1+8rxtOELG81sSz1+nnLvqC+zourc5xkI7m1BBdp8e+CtCC8zGnnukG63nxpY8arLk9/OpToYMP6WgB7RXYJU1tEiBiWWkSACygBbRXYJf0rN+ePQofbz9ux+r82y90AwoilvOye9ZVO5/8vtHr9KjrjnFfx6XVOQ7S0Zwaouv0xI8c2LvsdmE/L2DPg5/+6jfiWQT7h199KnTwIR0toL0Cu6Q0CRCHIU0CgAW0gPYK7NJ+/Cd7jALImjM+4oYURCznFy/98uj1ufPJ7938/9c97mu4tDrHQTqaU0N0XRorVq6+bp7PJlh7yWULDYKVa57deqddXxF+7anQwYd0tID2CuyS0iRAHIY0CQAW0ALaK7BLe+PvbqreES5guNf5+1QX33WJG1YQMZ92BkFsEJiX3XW5+/rtgzrHQTqaU0N0XRrbrvzgjvFsgnm8NsGavT+/8FGDndd8IvzKU6ODD+loAe0V2CWlSYA4DGkSACygBbRXYPfB09afXr352LePwsiOJ75r9Blou1iaF14QsTvtYz/H3nBc9b5T37/YIOjrxwyiOsdBOppTQ3RdOtusXH2FBemDv3uMG7SH6pkXXBI/ZnC/Xagx/LpTo4MP6WgB7RXYJaVJgDgMaRIALKAFtFdg98VrN15XfeTMjy0GE0TMa/yaw+i7fvDuXp9BENU5DtLRnBqi69LZHKJfb2H6rbvsNjdnE9g1FuI3GqxYtWa38KsuCR18SEcLaK/ALilNAsRhSJMAYAEtoL0Cu28ed8OJo69GtM9Aa2BBxO61xoC9/o645rvVrY/d5r5G+6bOcZCO5tQQXWfD5iB9mgXqj31mv7m4iOHnv/bthQbBytXXhV9xyejgQzpaQHsFdklpEiAOQ5oEAAtoAe0V2IiIQ1bnOEhHc2qIrrNhu/d85FWbQ/X9FqwtYHvBeyjaRRjt97CLFW7+9/XhV1wyOviQjhbQXoFdUpoEiMOQJgHAAlpAewU2IuKQ1TkO0tGcGqLr7LBAHYJ1dfhxP3QDeN+9YN1V8ToElV2UMfxqM0EHH9LRAtorsEtKkwBxGNIkAFhAC2ivwEZEHLI6x0E6mlNDdJ0t8dsOTLvwnxfE++oNN2+odli9+z+Hx79/+JVmhg4+pKMFtFdgl5QmAeIwpEkAsIAW0F6BjYg4ZHWOg3Q0p4boOntWrFy9jwVtu5Dh2ksucwN537QGward9x41N+z6CuFXmSk6+JCOFtBegV1SmgSIw5AmAcACWkB7BTYi4pDVOQ7S0Zwaoms3rFj5oaPCO/Kjz/h7wbwvWiMjnkFgFyqcxdcdeujgQzpaQHsFdklpEiAOQ5oEAAtoAe0V2IiIQ1bnOEhHc2qIrt2xzcrV+8ZGgV3MsI/femDXToiP0c4g2HrXXf91ePgzRwcf0tEC2iuwS/oHB98/Ch4/uHGTG0wQsR+++sD7aBIAbEYLaK/ARkQcsjrHQTqaU0N07ZbRNQrCxQzX7P35av0td7hhPbd33rex+vRXv7HYILCGRnjInaGDD+loAe0V2CV99wkPjYLHV3/2lBtMELG8x/7yudHr9E8Pf8B9HZdW5ziArtEC2iuwERGHrM5xkI7m1BBdu2dzCH/9ilVrbrcwvuPq3Ufv3ltI98J7Dn9w5tpqp932DM2BNY/O+lsMmtDBh3S0gPYK7JJ+9rzHR+Fj9WmPuuEEEcv7pUueHL1OP3jqw+7ruLQ6xwF0jRbQXoGNiDhkdY6DdDSnhuiaBzuNf3MoP2cUzDdrIT33tQrs2gPx4oSmXX9g25Uffm14iJ2jgw/paAHtFdglPf76Z0bh43WHbKxO+fVzbkBBxLK+8Tu/G71OD7rsCfd1XFqd4wC6Rgtor8BGRByyOsdBOppTQ3TNy5veu/qN26xcfUUM6hbaTz3nAjfUz8oL1l1Vfewz+73UHLCzGlZ+cOfwkLKhgw/paAHtFdilfctRD44CyE4nPOwGFEQs5yfPfmz0+tzq2xurWx950X0Nl1bnOICu0QLaK7AREYesznGQjubUEF3LYKf4r1i1en0M7m/d5aOjixtaw2CpH0WwCyTaWQNfOvSIlz5WsOD9K3Ze84nwELKjgw/paAHtFdil/fm9z1evOWjhomj2sYOzNzzvhhVEzKs1COIFC89Y/6z7+u2DOscBdI0W0F6BjYg4ZHWOg3Q0p4boWpYVq9bsZqf9S5Afae/827ULfnr1tSObLnh4y513L25jH1+wixFaw0GPtXDmwOp9u/pqw1R08CEdLaC9ArsPHn71U6MgYtpHD+wz0HaxNC+4IGJ32sd+vr7uqcWPGJh27RDvddsXdY4D6BotoL0CGxFxyOocB+loTg3RtR9svdOurxg1DFatOU0Dvuce++7/skZAXWs8bHafnNccGIcOPqSjBbRXYPfFtRueHV09PQYTRMxrPGsg+vpDN1Yn/+oZ9/XaJ3WOA+gaLaC9AhsRccjqHAfpaE4N0bV/2Dv+ds0Ae/c/NA0u1o8m1Lx/sxePXNh+N2s4hEP1Ch18SEcLaK/A7pP2mWe7OJp9NaJ9BloDCyJ27x8cfH+147EPVvte+Hi1/qEX3Ndp39Q5DqBrtID2CmxExCGrcxykozk1RNfhYRc/LP3RgWnQwYd0tID2CmxExCGrcxxA12gBffcT97pFNiLiUNU5DtLRnBqiK+RCBx/S0QLaK7AREYesznEAXfOX53xgsYA+5/Zz3SIbEXGI3vTQrxfnt3ee8e4w60EKmlNDdIVc6OBDOlpAewU2IuKQ1TkOoGu+f9Oxi0X0+9eurq7e+Au32EZEHJK/eWRD9bELdl+c375w+RfDrAcpaE4N0RVyoYMP6WgB7RXYiIhDVuc4gK659bHbFoto88/P2Kn64pVfHp1VwMcPEHFoXn7vldVBvzi4eveZq7aY2y69+2dh1oMUNKeG6Aq50MGHdLSA9gpsRMQhq3McQA5+sfHa6j1nvXeLglqtF9uIiH3S5ihrcHrrzB/fckaY7SAVzakhukIudPAhHS2gvQIbEXHI6hwHkIu7n7in+utLP+UW2IiIQ3S3Cz5e3fDgjWGWg0nQnBqiK+RCBx/S0QLaK7AREYesznEAubFmgV2n4NM/+9zoQl9e4Y2I2Fet2XnINYdWNz/8mzCrwTRoTg3RFXKhgw/paAHtFdiIiENW5zgAAACA3GhODdEVcqGDD+loAe0V2IiIQ1bnOAAAAIDcaE4N0RVyoYMP6WgB7RXYiIhDVuc4AAAAgNxoTg3RFXKhgw/paAHtFdiIiENW5zgAAACA3GhODdEVcqGDD+loAe0V2IiIQ1bnOAAAAIDcaE4N0RVyoYMP6WgB7RXYiIhDVuc4AAAAgNxoTg3RFXKhgw/paAHtFdiIiENW5zgAAACA3GhODdEVcqGDD+loAe0V2IiIQ1bnOAAAAIDcaE4N0RVyoYMP6WgB7RXYiIhDVuc4AAAAgNxoTg3RFXKhgw/paAHtFdiIiENW5zgAAACA3GhODdEVcqGDD+loAe0V2IiIQ1bnOAAAAIDcaE4N0RVyoYMP6WgB7RXYiIhDVuc4AAAAgNxoTg3RFSLbrFrT6aDo4EM6WkB7BTYi4pDVOQ4AAAAgN5pTQ3Sdf9rCv63T9V02CnTwIR0toL0CGxFxyOocBwAAAJAbzakhus4/45oE+m+X6OBDOlpAewU2IuKQ1TkOAAAAIDeaU0N0nQ0WsscZNs1O233nfFw6+JCOFtBegY2IOGR1jgMAAADIjebUEF3zQJOAJsG0aAHtFdiIiENW5zgAAACA3GhODdE1DznDuN3XUgyHmTk6+JCOFtBegY2IOGR1jgMAAADIjebUEF3z0GX4Hkfbfed8XDr4kI4W0F6BjYg4ZHWOAwAAAMiN5tQQXfOQEsa7CuxLbRLM6nHp4EM6WkB7BTYi4pDVOQ4AAAAgN5pTQ3TtnklCtm07jWF3l7b14/aN6H1NYth9hA4+pKMFtFdgIyIOWZ3jAAAAAHKjOTVE1+6ph+XctN1/zsemgw/paAHtFdiIiENW5zgAAACA3GhODdG1e0o3CdqgSdB/tID2CmxExCGrcxwAAABAbjSnhujaPX1tEuR+XDr4kI4W0F6B3Tcvu3NTdejlT1Z7nPVo9ZajHqz+7QH3ImIG//TwB6oPnvpw9ZVLHq/WbnjWfX32UZ3jAAAAAHKjOTVE1+6hSbCADj6kowW0V2D3yX0vfNwNL4iYX2sYrH/oBfe12id1jgMAAADIjebUEF2nx0L2UgyHKUKJ+9fBh3S0gPYK7D7483uf3+Ksgbcd/VD18TMfq7515dPV2Ruer86/7QVE7Fh7ve299vFq5UkPV68+8L7Ra/H1h26szljf77MKdI4DAAAAyI3m1BBdlx+lGhQ6+JCOFtBegV3aWx95sXrTkb8bBZLXHbKx+vq6p9wAg4j5PPaXz1V/cvgDi42C6zc+775++6DOcQAAAAC50ZwaouvyofQZDDr4kI4W0F6BXdrPnrfwEYP//M37q9N/s8kNLIiYXzuLZ9vvLZzh874fPuS+fvugznEAAAAAudGcGqIr5EIHH9LRAtorsEt60W3PjQKIaac6e0EFEcv5gxs3Va/9+v2j1+jx1z/jvo5Lq3McAAAAQG40p4boCrnQwYd0tID2CuySHnTZE6PwsdMJD7sBBRHL+8mzHxu9Tvc65zH3dVxaneMAAAAAcqM5NURXyIUOPqSjBbRXYJfUTmG28PHZ855wwwkilvfwnz8zep3atUO813FpdY4DAAAAyI3m1BBdIRc6+JCOFtBegV3Srb69cRQ+vnfts244QcTy2rUJ7NsOXnPQfe7ruLQ6xwEAAADkRnNqiK6QCx18SEcLaK/ALqk1CEwvmCBif4yvVe91XFqd4wAAAAByozk1RFfIhQ4+pKMFtFdgl5QmAeIwpEkAAAAA4KM5NURXyIUOPqSjBbRXYJeUJgHiMKRJAAAAAOCjOTVEV8iFDj6kowW0V2CXlCYB4jCkSQAAAADgozk1RFfIhQ4+pKMFtFdgl5QmAeIwpEkAAAAA4KM5NURXyIUOPqSjBbRXYJeUJgHiMKRJAAAAAOCjOTVEV8iFDj6kowW0V2CXlCYB4jCkSQAAAADgozk1RFfIhQ4+pKMFtFdgl5QmAeIwpEkAAAAA4KM5NURXyIUOPqSjBbRXYJeUJgHiMKRJAAAAAOCjOTVEV8iFDj6kowW0V2CXlCYB4jCkSQAAAADgozk1RFfIhQ4+pKMFtFdgl5QmAeIwpEkAAAAA4KM5NURXyIUOPqSjBbRXYJeUJgHiMKRJAAAAAOCjOTVEV8iFDj6kowW0V2CXlCYB4jCkSQAAAADgozk1RFfIhQ4+pKMFtFdgl5QmAeIwpEkAAAAA4KM5NURXyIUOPqSjBbRXYJd0qU2C39vuaHf5rOz6+G2m3rdt17TtuGOU+v3GPd76+rbHOe06nEyaBAAAAAA+mlNDdIVc6OBDOlpAewV2SUs1CVL3S9nOtvGcdJu6besnOYbnuPWmHsfT26eut5/prdNlTT97tm3btO+4Y+LLpUkAAAAA4KM5NURXyIUOPqSjBbRXYJe0VJPA9Pa1ZeP09hm3LHW/qK6zn+vqtk3qdt4+49bH5Z5xXX3bttuqrrOfvX295XW99bqsvj7lmOhLkwAAAADAR3NqiK6QCx18SEcLaK/ALmlqkyCGu6XYdFxveXTcelPvQ510G3XadVFvG102br1nff2kt9W2be3neLu+PP7sLfP2i8t0HU4nTQIAAAAAH82pIbpCLnTwIR0toL0Cu6SpTYImZxn86oGyzfp+ettblrJN03K93bTPpE5zHO9xjTNl+/r6+LO3vL5Mra/Xf3Hp0iQAGCZ3PnZXdcbNZ1WHXHFo9fGf7FG96fvbIWIGP3DamupLl+5fnXDDD6pf/259eEXCvKI5NURXyIUOPqSjBbRXYJe0T02CaNMx25Z7TrqNbusta1peXxaN+0xj0/GWclv11umypp8ntWnfpRxzuUqTAGB4HH3dsW54QcT8WsPgyU38PzWvaE4N0RVyoYMP6WgB7RXYJV1Kk6DLoFc/dtt9Tfs4vP1sWdPx6svH3e+49U1Oe//jbqtN2477d1Kb9pv2eMtZmgQAw+H+JzducdbAbmd9vPrKzw6oTvzVSdVl96yrrrzvKkTsWHu9fe2KQ6q9zt+n2u6Yt41eizudtHP1y/uvD69UmCc0p4boCrnQwYd0tID2CuySLrVJMM6U/ZqWt1k/XtvtpuVNt5v2N71tmravbzPOSfarb5dyW5dHx92uL4/HaNrO1G0m2Q7bpUkAMAw2vbip+vAZHxsFkh1PfFd17A3HuQEGEfN55oazqved+v7FRsHDzzwSXrEwL2hODdEVcqGDD+loAe0V2CVdapNA/62bEgTHbTPtMerLUrYZtzyaeixdNskxm7atL7fb49Tt6/vFn+vr68tTtmlbhrORJgHAMIgfMfiLk95TXXzXJW5gQcT82lk8dlaPvT73Of+z4RUL84Lm1BBdIRc6+JCOFtBegV3SaZsE9TA47naT3n7j1O3jPvXbTda309vjlpu6Lh4zLkvdz3PcenOWx5j0WN72KcvG3Q+mS5MAoP/c8vAtowBi2qnOXlBBxHKef/uF1duP23H0Gr3otovDKxfmAc2pIbpCLnTwIR0toL0Cu6R9axLUTTlO2zbTrNPl9nOTuk/ctr4sWt/X09tPHbfNJMfQfyexfizP+jZ6e9xybJYmAUD/OeWmH43CxyfX/o0bUBCxvF9dd+DodWrfOALzg+bUEF0hFzr4kI4W0F6BXdJpmgTjgt8kAXDctinH0m3s53F6+6lNy6Pj1ntOs0/dpT4uXV/fdtxtT2+blOOmHBtfLk0CgP5jV0+38GEXS/PCCSKW9+Rfnzp6ndq1Q2B+0JwaoivkQgcf0tEC2iuwSzrLJoE5aQDU7WOATLHpGN7ycetTluuypp/bTN2uTTtGtH67yfoxovV13ra6bNz6pmV2W9V1OJk0CQD6j30vu4UPCyFeOEHE8tq1Cex1+pZj3xFeuTAPaE4N0RVyoYMP6WgB7RXYJZ20SdAW9OK6ScLguG1TjuVtU1+Wsk3bcl3W9HObtl2K4/arr1fHrVfr23rHj7ebjhv3qVvfRm/j9NIkAOg/FjxMvuYQsd/G1yrMD5pTQ3SFXOjgQzpaQHsFdkknaRK0Bb5pw+G47VKOo9vYz0371Ne1bbeU256z2qbNSfbXbZt+nmRd0zJvm7bl2CxNAoD+E4OHF0oQsT/SJJg/NKeG6Aq50MGHdLSA9grskqY2CdrC3jTrzLhu3HbjnHbfpv10ubdN6jJ13HozZZs2J9lft/X2s2Vxef1f3UZve8u8bdqWY7M0CQD6D00CxGFIk2D+0JwaoivkQgcf0tEC2iuwS5raJFAt4EW99XXr2zbtG5enWN9Pb4+z6Ti63lsenfT+TL3PNr19Pb19m2zaX//V5d4+3nK9HdfXt6mvU+vbYbs0CQD6D00CxGFIk2D+0JwaoivkQgcf0tEC2iuwSzpNkwAR80uTAKD/0CRAHIY0CeYPzakhukIudPAhHS2gvQK7pDQJEIchTQKA/kOTAHEY0iSYPzSnhugKudDBh3S0gPYK7JLSJEAchjQJAPoPTQLEYUiTYP7QnBqiK+RCBx/S0QLaK7BLSpMAcRjSJADoPzQJEIchTYL5Q3NqiK6QCx18SEcLaK/ALilNAsRhSJMAoP/QJEAchjQJ5g/NqSG6Qi508CEdLaC9ArukNAkQhyFNAoD+Q5MAcRjSJJg/NKeG6Aq50MGHdLSA9grsktIkQByGNAkA+g9NAsRhSJNg/tCcGqIr5EIHH9LRAtorsEtKkwBxGNIkAOg/NAkQhyFNgvlDc2qIrpALHXxIRwtor8AuKU0CxGFIkwCg/9AkaPaVu7zKXZ7DkveN/ZQmwfyhOTVEV8iFDj6kowW0V2CXlCYB4jCkSQDQf2gSvFwN6KXCOk0CrEuTYP7QnBqiK+RCBx/S0QLaK7BLSpMAcRjSJADoP8utSWDhe5xxu/q+ucx53yV/T5xMmgTzh+bUEF0hFzr4kI4W0F6BXVKaBIjDkCYBQP9Zbk2CIRibFU16+yzFLo5Zt/47NOntiwvSJJg/NKeG6Aq50MGHdLSA9grsktIkQByGNAkA+g9Ngn45LihPGqSbwncfA3kfH1OfpEkwf2hODdEVcqGDD+loAe0V2CWlSYA4DGkSAPQfmgT9MSUkTxKkdVtvv76F8r49nr5Jk2D+0JwaoivkQgcf0tEC2iuwS0qTAHEY0iQA6D80CfphakBeynZ9DuE0CMZLk2D+0JwaoivkQgcf0tEC2iuwS/oHB98/Ch4/uHGTG0wQsR+++sD7aBIA9Jzl0iSwEDqt3rHqy5Zi6vFmsd2s72tW5r6/IUqTYP7QnBqiK+RCBx/S0QLaK7BL+u4THhoFj6/+7Ck3mCBieY/95XOj1+mfHv6A+zourc5xAMuZ5dIkaHOagGr7TKN3LLVtu9T9veVqyjZmfCyT6h2rzWn2WY7SJJg/NKeG6Aq50MGHdLSA9grskn72vMdH4WP1aY+64QQRy/ulS54cvU4/eOrD7uu4tDrHASxnaBL0M6TWA3fKY5zk9+jT79ynx9JnaRLMH5pTQ3SFXOjgQzpaQHsFdkmPv/6ZUfh43SEbq1N+/ZwbUBCxrG/8zu9Gr9ODLnvCfR2XVuc4gOUMTYJ+h9T42MY9xml+hz783n0e+75Jk2D+0JwaoivkQgcf0tEC2iuwS/uWox4cBZCdTnjYDSiIWM5Pnv3Y6PW51bc3Vrc+8qL7Gi6tznEAy5nl3iQYQkjt8jGW/P3jfdMoSJMmwfyhOTVEV8iFDj6kowW0V2CX9uf3Pl+95qCFi6LZxw7O3vC8G1YQMa/WIIgXLDxj/bPu67cP6hwHsJyhSdDvgJojSJcYg/p99v156IM0CeYPzakhukIudPAhHS2gvQK7Dx5+9VOjIGLaRw/sM9B2sTQvuCBid9rHfr6+7qnFjxiYdu0Q73XbF3WOA1jOLOcmQd+Dac4gnXMsmu6r789HaWkSzB+aU0N0hVzo4EM6WkB7BXZfXLvh2dHV02MwQcS8xrMGoq8/dGN18q+ecV+vfVLnOIDlzHJtEvQ5kNpjm8fAnPJ7zePvPStpEswfmlNDdIVc6OBDOlpAewV2n7TPPNvF0eyrEe0z0BpYELF7/+Dg+6sdj32w2vfCx6v1D73gvk77ps5xAMuZ5dYk6GsAj49rHkPypL/XPI7BLKRJMH9oTg3RFXKhgw/paAHtFdiIiENW5ziA5cxyaxIgDlWaBPOH5tQQXSEXOviQjhbQXoGNiDhkdY4DWM7QJEAchjQJ5g/NqSG6Qi508CEdLaC9AhsRccjqHAewnKFJgDgMaRLMH5pTQ3SFXOjgQzpaQHsFNiLikNU5DmA5Q5MAcRjSJJg/NKeG6Aq50MGHdLSA9gpsRMQhq3McwHKGJgHiMKRJMH9oTg3RFXKhgw/paAHtFdiIiENW5ziA5QxNAsRhSJNg/tCcGqIr5EIHH9LRAtorsBERh6zOcQDLGZoEiMOQJsH8oTk1RFfIhQ4+pKMFtFdgIyIOWZ3jAJYzNAkQhyFNgvlDc2qIrpALHXxIRwtor8BGRByyOscBLGdoEiAOQ5oE84fm1BBdIRc6+JCOFtBegY2IOGR1jgNYztAkQByGNAnmD82pIbpCLnTwIR0toL0CGxFxyOocB7CcoUmAOAxpEswfmlNDdIVc6OBDOlpAewU2IuKQ1TkOYDlDkwBxGNIkmD80p4boCrnQwYd0tID2CmxExCGrcxzAcoYmAeIwpEkwf2hODdEVcqGDD+loAe0V2IiIQ1bnOIDlDE0CxGFIk2D+0JwaoivkQgcf0tEC2iuwERGHrM5xAMsZmgSIw5AmwfyhOTVEV8iFDj6kowW0V2AjIg5ZneMAljN9aRKcsP4H1YG/+Hr16Z99rvrw+R9DLO6el+5dffmqA6ojbzyqWnfv5e7fbU5pEswfmlNDdIVc6OBDOlpAewU2IuKQ1TkOYDlTuklw6T0/q/7uii+7IQ2xL1rz6tzbz3P/hnNJk2D+0JwaoivkQgcf0tEC2iuwERGHrM5xAMuZ0k2C2CDY46I9q5N/e2p15f1XVxuffgCxuD/feE11xq0/qfa8ZO/R36idWVDyjAKaBPOH5tQQXSEXOviQjhbQXoGNiDhkdY4DWM6UbBIce9PxC+Frcwi7+eHfuEENsbS3P3Fn9YXLvzj6W/3Gtd9y/5ZzSJNg/tCcGqIr5EIHH9LRAtorsBERh6zOcQDLmZJNAvu8twUve7fWC2eIfdHOKrC/1b1++mn3bzmHNAnmD82pIbpCLnTwIR0toL0CGxFxyOocB7CcKdkksNO3LXhd97vr3WCG2BfvefLe0d+q6f0t55AmwfyhOTVEV8iFDj6kowW0V2AjIg5ZneMAljMlmwQxdHmhDLFv0iSAWaM5NURXyIUOPqSjBbRXYCMiDlmd4wCWMzQJENOkSQCzRnNqiK6QCx18SEcLaK/ARkQcsjrHASxnaBIgpkmTAGaN5tQQXSEXOviQjhbQXoGNiDhkdY4DWM7QJEBMkyYBzBrNqSG6Qi508CEdLaC9AhsRccjqHAewnKFJgJgmTQKYNZpTQ3SFXOjgQzpaQHsFNiLikNU5DmA5Q5MAMU2aBDBrNKeG6Aq50MGHdLSA9gpsRMQhq3McwHKGJgFimjQJYNZoTg3RFXKhgw/paAHtFdiIiENW5ziA5QxNAsQ0aRLArNGcGqIr5EIHH9LRAtorsPvmxfe9UO3/q03Vrlc8V/3Xc5+t/ueTnkLEDP77nzxT7fizZ6tPX/dcdcZdz7uvzz6qcxzAcoYmAWKaNAlg1mhODdEVcqGDD+loAe0V2H3yr699zg0viJhfaxjc9MiL7mu1T+ocB7CcoUmAmCZNApg1mlNDdIVc6OBDOlpAewV2H7zigRe3OGvgzy56ttrzuk3VD+96ofrtE/9c3fk0Inatvd6+cOOm6j2Xb6r+1SkLr8VX/Pjp6uTbX3Bft31R5ziA5QxNAsQ0aRLArNGcGqIr5EIHH9LRAtorsEt7y6P/VL3unGcWA8kxd7zgBhhEzOdFD7xY/Qd5XV77YH/PKNA5DmA5Q5MAMU2aBDBrNKeG6Aq50MGHdLSA9grs0saPGPz+mc9UNz7+T25gQcT82lk8dlbP6OyeC59xX799UOc4gOUMTQLENGkSwKzRnBqiK+RCBx/S0QLaK7BLeu49L4wCiGmnOntBBRHL+YtH/qn6N6c+PXqN/sPN/byYoc5xAMsZmgSIadIkgFmjOTVEV8iFDj6kowW0V2CXdN8bNo3Cx46XPecGFEQs7z7XL5ztY9844r2OS6tzHMByhiYBYpo0CWDWaE4N0RVyoYMP6WgB7RXYJbWrp1v4sIuleeEEEct7ejjjx64d4r2OS6tzHMByhiYBYpo0CWDWaE4N0RVyoYMP6WgB7RXYJbXvZbfwYSHECyeIWF67NoG9Tu0bD7zXcWl1jgNYztAkQEyTJgHMGs2pIbpCLnTwIR0toL0Cu6QWPEy+5hCx38bXqvc6Lq3OcQDLGZoEiGnSJIBZozk1RFfIhQ4+pKMFtFdglzQGDy+UIGJ/pEkA0H9oEiCmSZMAZo3m1BBdIRc6+JCOFtBegV1SmgSIw5AmAUD/oUmAmCZNApg1mlNDdIVc6OBDOlpAewV2SWkSIA5DmgQA/YcmAWKaNAlg1mhODdEVcqGDD+loAe0V2CWlSYA4DGkSAPQfmgSIadIkgFmjOTVEV8iFDj6kowW0V2CXlCYB4jCkSQDQf2gSIKZJkwBmjebUEF0hFzr4kI4W0F6BXVKaBIjDkCYBQP+hSYCYJk0CmDWaU0N0hVzo4EM6WkB7BXZJaRIgDkOaBAD9hyYBYpo0CWDWaE4N0RVyoYMP6WgB7RXYJaVJgDgMaRIA9B+aBIhp0iSAWaM5NURXyIUOPqSjBbRXYJe0D02CU667r/qf3vOdJL950Qb3GJ63PvFiteIr51b/Ya8fVTc/8vzLbnv7jHMWx6h72R2PV//rB46utjvgPHd9kyf+4p5q6y+evcX4/PHnz6zO/+3D7vZm0z5H/Ow2d3tzmn1w9tIkAOg/NAkQ06RJALNGc2qIrpALHXxIRwtor8AuKU2CyexDkyA+Bm98op84/hcv2++vjr7a3Tb67m9eOpN9sBtpEgD0H5oEiGnSJIBZozk1RFfIhQ4+pKMFtFdgl7QPTYK6XQRxs6vjLtVJmwQf+t4Vo4D+2j1Pqdbe/ODicvv9jrnqrtGx/pdVR1an37hxcV28D1tePwPgvN8+VP3x588aHVObMNPsg91JkwCg/9AkQEyTJgHMGs2pIbpCLnTwIR0toL0Cu6Q0Cco7SZMgnnXR9jvEbfR4B65d3xrovccwzT7YnTQJAPoPTQLENGkSwKzRnBqiK+RCBx/S0QLaK7BLOuQmgb1r/rq9TxsFWdPe8d7n5OsW96kfR2/f9NBz7n3EgK2n67ftp+v03XV7LJ/70S8XjxG94q4ntvh8v52ub/ulhm07i6B+lkBde0xfPefXW5xlEH+vSd71n2Yf7E6aBAD9hyYBYpo0CWDWaE4N0RVyoYMP6WgB7RXYJR1qkyC+y+0ZA379OPXbdox64I6n8mtg/+2jz1f/50dPGB236Zj1xxDVZkN8572+zav3+GFSkyBlXJrUx/nOQy4efXxg3DGm2Qe7kyYBQP+hSYCYJk0CmDWaU0N0hVzo4EM6WkB7BXZJh9gkiKH9X+1y1BZX8rcQbsubmgL12/V3yuP6//LZ00fHvnbj06Pltl1sJjQd045jIT8+3tjEiMFft9v92J8vbmffHBAbB+OaBPH3Hrddk/YY3n/EutF9qW3fVDDNPtiNNAkA+g9NAsQ0aRLArNGcGqIr5EIHH9LRAtorsEs6xCaBeultj1ZHX3Fn9aEjr1z86EFqk6AeuuM7/X/zg2uq/+1Dxy2eYWBnF8SmQdMxtalgxmPH7do+vx+bFV03CaL2mH947b1bjJmO26z2wdlKkwCg/9AkQEyTJgHMGs2pIbpCLnTwIR0toL0Cu6RDbRI0nbqvwbUp0OtxrQEQb9u7/xb27boBFsbtDIN6ME85prddfLzeVxOmhv+m+1qqdty/O/3G0dilNiCm2QeXJk0CgP5Dk6Ccr9zlVS9zKduZKdvgdNIkgFmjOTVEV8iFDj6kowW0V2CXdIhNghiqLaDu8PULRxcrPO7qu6qLbnlktLwpwHvHtXfx41kA1jCIgTf+HMN9/SMJbcf0tptFk8C0xzXuwoWmbhePX3+Many8cSym2cfbBmcnTQKA/kOToJxekJ/lMm8bnF6aBDBrNKeG6Aq50MGHdLSA9grskg6xSdB01f16sK0fxztuDO8Hnrt+tG8M8XZWgW1n75ZrCE45prddvB+vEZD6cQMzHqd+f+O2GddciI9Xf9dp9sHupEkA0H9oEpSzKcSnhn1dnnosnF6aBDBrNKeG6Aq50MGHdLSA9grskg65SWChOq63jwjErx+M+9WP4x03LrOLFep1COw+LCDb5+81vKcc09vOllnotsc37YULo/E4r93zlC0uHmj3+eWzblo8njZR4pjZ76RfE2na2NljrT+GafbB7qRJANB/aBKUMzXYp2yXeiycXpoEMGs0p4boCrnQwYd0tID2CuySDrFJoB838IzvbKcG+vhNBPqOuN6Hhu3UY3rL4zv8+lhN+8iELU8N2/HY9eOo3sca4u/ZpDUd6mcETLMPdiNNAoD+Q5OgnKnBPmU7mgHdS5MAZo3m1BBdIRc6+JCOFtBegV3SITYJTD1zwHz1Hj+sDj7/N1ucIp8a6L2PAsRt66fbpx6zabk9bv1KwXd/89LqvN8+NFGTwLTjH3PVXaMzIOKxTPtqwrU3P+juY9p1G7b+4tlbNCts7OpnCix1H5y9NAkA+g9NgnLOskng3cbZSpMAZo3m1BBdIRc6+JCOFtBegV3SPjYJEPHl0iQA6D80CcrphfrUZU3LbVnT9rg0aRLArNGcGqIr5EIHH9LRAtorsEtKkwBxGNIkAOg/NAnKGQO92rTdJMvNtnU4nTQJYNZoTg3RFXKhgw/paAHtFdglpUmAOAxpEgD0H5oE5awH+Vk2CUwaBbOVJgHMGs2pIbpCLnTwIR0toL0Cu6Q0CRCHIU0CgP5Dk6CcXTcJTBoFs5MmAcwazakhukIudPAhHS2gvQK7pDQJEIchTQKA/kOToJxegE9dVl+esg0uTZoEMGs0p4boCrnQwYd0tID2CuyS0iRAHIY0CQD6D02CcqY2BFIaACnb4NKkSQCzRnNqiK6QCx18SEcLaK/ALilNAsRhSJMAoP/QJChnarD3tktZ1nR8nE6aBDBrNKeG6Aq50MGHdLSA9grsktIkQByGNAkA+g9NgnI2hXgv7NfV9WrKNjidNAlg1mhODdEVcqGDD+loAe0V2CX9N6c+PQoe6x78JzeYIGI//Fen0CQA6Ds0CRDTpEkAs0ZzaoiukAsdfEhHC2ivwC7pn134zCh4fOu3z7vBBBHLe9EDL45ep//+J8+4r+PS6hwHsJyhSYCYJk0CmDWaU0N0hVzo4EM6WkB7BXZJd//FplH4+NDPN7nhBBHLa008e53u+LNn3ddxaXWOA1jO0CRATJMmAcwazakhukIudPAhHS2gvQK7pEduWAgf9rGDXzzCRw4Q++Zvn/jn6t/9ZOGMn31v2OS+jkurcxzAcoYmAWKaNAlg1mhODdEVcqGDD+loAe0V2KX9kwsWAsj/c8GzbkhBxHJ+/JqFRt7vn/FMdcuj/mu4tDrHASxnaBIgpkmTAGaN5tQQXSEXOviQjhbQXoFd2iseeHHxAobvuXxTdePjnFGAWFo7gyA2CMwz7nreff32QZ3jAJYzNAkQ06RJALNGc2qIrpALHXxIRwtor8Dug/9w8/OLV09/xY+fHn0G2i6W5oUXROxO+9jPMXe8UP2HcxbO8DH7+jGDqM5xAMsZmgSIadIkgFmjOTVEV8iFDj6kowW0V2D3xYvve6H6r+c+uxhMEDGvsVEXtYZdn88giOocB7CcoUmAmCZNApg1mlNDdIVc6OBDOlpAewV239z/V5tGX41on4HWwIKI3WuNAXv9ffq656qbHnnRfY32TZ3jAJYzNAkQ06RJALNGc2qIrpALHXxIRwtor8BGRByyOscBLGdoEiCmSZMAZo3m1BBdIRc6+JCOFtBegY2IOGR1jgNYztAkQEyTJgHMGs2pIbpCLnTwIR0toL0CGxFxyOocB7CcoUmAmCZNApg1mlNDdIVc6OBDOlpAewU2IuKQ1TkOYDlDkwAxTZoEMGs0p4boCrnQwYd0tID2CmxExCGrcxzAcoYmAWKaNAlg1mhODdEVcqGDD+loAe0V2IiIQ1bnOIDlDE0CxDRpEsCs0ZwaoivkQgcf0tEC2iuwERGHrM5xAMsZmgSIadIkgFmjOTVEV8iFDj6kowW0V2AjIg5ZneMAljM0CRDTpEkAs0ZzaoiukAsdfEhHC2ivwEZEHLI6xwEsZ2gSIKZJkwBmjebUEF0hFzr4kI4W0F6BjYg4ZHWOA1jO0CRATJMmAcwazakhukIudPAhHS2gvQIbEXHI6hwHsJyhSYCYJk0CmDWaU0N0hVzo4EM6WkB7BTYi4pDVOQ5gOUOTADFNmgQwazSnhugKudDBh3S0gPYKbETEIatzHMByhiYBYpo0CWDWaE4N0RVyoYMP6WgB7RXYiIhDVuc4gOUMTQLENGkSwKzRnBqiK+RCBx/S0QLaK7AREYesznEAyxmaBIhp0iSAWaM5NURXyIUOPqSjBbRXYCMiDlmd4wCWMzQJENOkSQCzRnNqiK6QCx18SEcLaK/ARkQcsjrHASxnaBIgpkmTAGaN5tQQXSEXOviQjhbQXoGNiDhkdY4DWM7QJEBMkyYBzBrNqSG6Qi508CEdLaC9AhsRccjqHAewnCnZJPjoBbuPQtctj93qhjLEPkmTAGaN5tQQXSEXOviQjhbQXoGNiDhkdY4DWM6UbBJ84fIvjkLXxXdd6oYyxL5488O/Gf2t7nnp3u7fcg5pEswfmlNDdIVc6OBDOlpAewU2IuKQ1TkOYDlTsknwresOGwUvaxbc8+S9bjhD7IOHXX/E6G/1gKsPdP+Wc0iTYP7QnBqiK+RCBx/S0QLaK7AREYesznEAy5mSTYJL7/lZtcfFfz0KXwf+/Oujd2u9gIZYytufuHOxQWAfjzn39vPcv+Uc0iSYPzSnhugKudDBh3S0gL71Ub/IRkQcqv/+cJoEAEbJJoH54w1nVLtf+IlRCEPskx+78H8s/mwNgmNvOt79G84lTYL5Q3NqiK6QCx18SGfFiU8vFtBnbHjBLbIREYfo+odeXJzfXns4TQJY3pRuEpgX33XJ6DRumgXYN6058OWrDih6BkGUJsH8oTk1RFfIhQ4+pLPXRc8tFtFfu/o5t9BGRByip9z8/OL89s5TnwmzHsDypA9NAkQcL02C+UNzaoiukAsdfEjnuF+9VES//YfPuIU2IuIQ/ZQ0Qfe7bFOY9QCWJzQJEIchTYL5Q3NqiK6QCx18SOeWR7a8sNc3f7HJLbYREYfk2tteaoCa5972Qpj1AJYnNAkQhyFNgvlDc2qIrpALHXyYjL+/ctNiIW0X+TriOhoFiDhc7WMG/+Wopxbntfef9WyY7QCWLzQJEIchTYL5Q3NqiK6QCx18mIznXtzyAobmzj9+ZnQhQ7vwl1eEIyL2TZuzPnbus1vMZf/pyKeq3z39z2G2A1i+0CRAHIY0CeYPzakhukIudPBhcm568J+qrb7/0jtviIhD1xoEfMwAYAGaBIjDkCbB/KE5NURXyIUOPkzH48/9c/W5S1+60Bci4lC1jxhwBgHAS9AkQByGNAnmD82pIbpCLnTwYWlcu/HF0ZXAV57+jFt8IyL20bf98OnR17raxw4AYEtoEiAOQ5oE84fm1BBdIRc6+AAAAADwEjQJEIchTYL5Q3NqiK6QCx18AAAAAHgJmgSIw5AmwfyhOTVEV8iFDj4AAAAAvARNAsRhSJNg/tCcGqIr5EIHHwAAAABeYocT3jUKHufceq4bTBCxH253zNtoEswZmlNDdIVc6OADAAAAwEvsc/5nR8HjiGu/6wYTRCzvmRvOGr1OP3DamvDKhXlAc2qIrpALHXwAAAAAeInvXvO9Ufj4/MX7uuEEEctrTTx7nX7p0v3DKxfmAc2pIbpCLnTwAQAAAOAlLrtz3Sh8vP24Havzb7/QDSiIWM7L7llX7Xzy+0av01Nu+lF45cI8oDk1RFfIhQ4+AAAAAGzJnmv3GgWQNWd8xA0piFjOL1765dHr872n7FJtenFTeNXCPKA5NURXyIUOPgAAAABsyf1Pbly8gOFe5+9TXXzXJW5YQcR82hkEsUFg/vp368MrFuYFzakhukIudPABAAAA4OVcdNvF1VuOfccojOx44rtGn4G2i6V54QURu9M+9nPsDcdV7zv1/YsNAj5mMJ9oTg3RFXKhgw8AAAAAPnc+dlf18Z/ssRhMEDGv8WsOozudtDNnEMwxmlNDdIVc6OADAAAAQDtn3HzW6KsR7TPQGlgQsXutMWCvvxNu+EH15KYnw6sS5hHNqSG6Qi508AEAAAAAAABKozk1RFfIhQ4+AAAAAAAAQGk0p4boCrnQwQcAAAAAAAAojebUEF0hFzr4AAAAAAAAAKXRnBqiK+RCBx8AAAAAAACgNJpTQ3SFXOjgAwAAAAAAAJRGc2qIrpALHXwAAAAAAACA0mhODdEVcqGDDwAAAAAAAFAazakhukIudPABAAAAAAAASqM5NURXyIUOPgAAAAAAAEBpNKeG6Aq50MEHAAAAAAAAKI3m1BBdIRc6+AAAAAAAAACl0ZwaoivkQgcfAAAAAAAAoDSaU0N0hVzo4AMAAAAAAACURnNqiK6QCx18AAAAAAAAgNJoTg3RFXKhgw8AAAAAAABQGs2pIbpCLnTwAQAAAAAAAEqjOTVEV8iFDj4AAAAAAABAaTSnhugKudDBBwAAAAAAACiN5tQQXSEXOvgAAAAAAAAApdGcGqIr5EIHHwAAAAAAAKA0mlNDdIVc6OADAAAAAAAAlEZzaoiukAsdfAAAAAAAAIDSaE4N0RVyoYMPAAAAAAAAUBrNqSG6Qi508AEAAAAAAABKozk1RFfIhQ4+AAAAAAAAQGk0p4boCrnQwQcAAAAAAAAojebUEF0hFzr4AAAAAAAAAKXRnBqiK+RCBx8AAAAAAACgNJpTQ3SFXOjgAwAAAAAAAJRGc2qIrpALHXwAAAAAAACA0mhODdEVcqGDDwAAAAAAAFAazakhukIudPABAAAAAAAASqM5NURXyIUOPgAAAAAAAEBpNKeG6Aq50MEHAAAAAAAAKI3m1BBdIRc6+AAAAAAAAACl0ZwaoivkQgcfAAAAAAAAoDSaU0N0hVzo4AMAAAAAAACURnNqiK6QCx18AAAAAAAAgNJoTg3RFXKhgw8AAAAAAABQGs2pIbpCLnTwAQAAAAAAAEqjOTVEV8iFDj4AAAAAAABAaTSnhugKudDBBwAAAAAAACiN5tQQXSEXOvgAAAAAAAAApdGcGqIr5EIHHwAAAAAAAKA0mlNDdIVc6OADAAAAAAAAlEZzaoiukAsdfAAAAAAAAIDSaE4N0RVyoYMPAAAAAAAAUBrNqSG6Qi7esO0O98fBv2/jA+EpAQAAAAAAACjDinetoklQijdsu8MVcfBvXH9zeEoAAAAAAAAA8rNp06bFBsEbttv+0RBdIRebB/20+ARcsu7K8LQAAAAAAAAA5MfOcI8Zdavtdlgfoivk4g3bbX9wfAK+/b1jwtMCAAAAAAAAkJ+zzrtwsUmw2XNCdIVcbB70N8YnYMddPhSeFgAAAAAAAID87P13X1lsEmy17Q6fCNEVcrH11lv/S/ucR3wSuC4BAAAAAAAAlOChRx6p/vQdOy02CTb7qhBdISdbbbv9UfFJ+MuPfSI8PQAAAAAAAAD5OPgfvysNgu2vC5EVcvNH2+zw+peeCC5gCAAAAAAAAHm54667tziLYKttd9gxRFYowRu23eGw+GS8def3j07zAAAAAAAAAOga+9rD1XvsvdggsK/qD1EVSvFHb33rK/TaBPYE2RMFAAAAAAAA0CVfPOgbiw2Crbbb4Vk72z1EVSjJH237jjfHJ8b86F6frZ548qnwtAEAAAAAAADMlq8eethiBjX5RoOeYU+IPkHvXvNXo8+GAAAAAAAAAMwKe0Pa3pjW/GkX1Q/RFPrE5idnX32iTDv9476ND4SnEwAAAAAAAGByrDnwnWNPrFa8a9UWmXOr7XY40b6iP8RS6Btv2Gb7ne2zIPqkmXv/3VeqU886hwsbAgAAAAAAQBJ2vbvzLv5p9bn9D9riGwyim7Pn/iGKQp/Z6s3v+OOttt3+4voTqFr3p94BQkRERERExOWtNQPsm/O8ddHNefN2vupwgGx+8t44rlmAiIiIiIiImOJW2+2wfvO/7w+RE4aKfU3iH223/W5v2G7706zjU3+iEREREREREV/u9o/aG892ofz/tu3bXxsiZgL/4l/8/0kHuI70P7EPAAAAAElFTkSuQmCC;" vertex="1" parent="1">
                    <mxGeometry x="70" y="90" width="1546.21" height="940" as="geometry"/>
                </mxCell>
            </root>
        </mxGraphModel>
    </diagram>
</mxfile>